%TF.GenerationSoftware,KiCad,Pcbnew,8.0.8*%
%TF.CreationDate,2025-03-23T20:37:34+01:00*%
%TF.ProjectId,USB-DALI,5553422d-4441-44c4-992e-6b696361645f,rev?*%
%TF.SameCoordinates,Original*%
%TF.FileFunction,Soldermask,Top*%
%TF.FilePolarity,Negative*%
%FSLAX46Y46*%
G04 Gerber Fmt 4.6, Leading zero omitted, Abs format (unit mm)*
G04 Created by KiCad (PCBNEW 8.0.8) date 2025-03-23 20:37:34*
%MOMM*%
%LPD*%
G01*
G04 APERTURE LIST*
G04 Aperture macros list*
%AMRoundRect*
0 Rectangle with rounded corners*
0 $1 Rounding radius*
0 $2 $3 $4 $5 $6 $7 $8 $9 X,Y pos of 4 corners*
0 Add a 4 corners polygon primitive as box body*
4,1,4,$2,$3,$4,$5,$6,$7,$8,$9,$2,$3,0*
0 Add four circle primitives for the rounded corners*
1,1,$1+$1,$2,$3*
1,1,$1+$1,$4,$5*
1,1,$1+$1,$6,$7*
1,1,$1+$1,$8,$9*
0 Add four rect primitives between the rounded corners*
20,1,$1+$1,$2,$3,$4,$5,0*
20,1,$1+$1,$4,$5,$6,$7,0*
20,1,$1+$1,$6,$7,$8,$9,0*
20,1,$1+$1,$8,$9,$2,$3,0*%
%AMFreePoly0*
4,1,9,3.862500,-0.866500,0.737500,-0.866500,0.737500,-0.450000,-0.737500,-0.450000,-0.737500,0.450000,0.737500,0.450000,0.737500,0.866500,3.862500,0.866500,3.862500,-0.866500,3.862500,-0.866500,$1*%
G04 Aperture macros list end*
%ADD10RoundRect,0.150000X0.512500X0.150000X-0.512500X0.150000X-0.512500X-0.150000X0.512500X-0.150000X0*%
%ADD11RoundRect,0.250000X0.250000X0.475000X-0.250000X0.475000X-0.250000X-0.475000X0.250000X-0.475000X0*%
%ADD12R,1.700000X1.700000*%
%ADD13O,1.700000X1.700000*%
%ADD14RoundRect,0.225000X-0.225000X0.425000X-0.225000X-0.425000X0.225000X-0.425000X0.225000X0.425000X0*%
%ADD15FreePoly0,270.000000*%
%ADD16RoundRect,0.250000X1.000000X0.650000X-1.000000X0.650000X-1.000000X-0.650000X1.000000X-0.650000X0*%
%ADD17RoundRect,0.250000X0.262500X0.450000X-0.262500X0.450000X-0.262500X-0.450000X0.262500X-0.450000X0*%
%ADD18RoundRect,0.250000X-0.262500X-0.450000X0.262500X-0.450000X0.262500X0.450000X-0.262500X0.450000X0*%
%ADD19RoundRect,0.250000X-0.475000X0.250000X-0.475000X-0.250000X0.475000X-0.250000X0.475000X0.250000X0*%
%ADD20RoundRect,0.250000X-0.250000X-0.475000X0.250000X-0.475000X0.250000X0.475000X-0.250000X0.475000X0*%
%ADD21RoundRect,0.250000X0.450000X-0.262500X0.450000X0.262500X-0.450000X0.262500X-0.450000X-0.262500X0*%
%ADD22RoundRect,0.243750X-0.243750X-0.456250X0.243750X-0.456250X0.243750X0.456250X-0.243750X0.456250X0*%
%ADD23RoundRect,0.200000X0.300000X0.200000X-0.300000X0.200000X-0.300000X-0.200000X0.300000X-0.200000X0*%
%ADD24RoundRect,0.250000X-0.362500X-1.425000X0.362500X-1.425000X0.362500X1.425000X-0.362500X1.425000X0*%
%ADD25RoundRect,0.075000X0.662500X0.075000X-0.662500X0.075000X-0.662500X-0.075000X0.662500X-0.075000X0*%
%ADD26RoundRect,0.075000X0.075000X0.662500X-0.075000X0.662500X-0.075000X-0.662500X0.075000X-0.662500X0*%
%ADD27RoundRect,0.250000X-0.450000X0.262500X-0.450000X-0.262500X0.450000X-0.262500X0.450000X0.262500X0*%
%ADD28R,1.600000X1.600000*%
%ADD29O,1.600000X1.600000*%
%ADD30C,1.500000*%
%ADD31RoundRect,0.243750X0.243750X0.456250X-0.243750X0.456250X-0.243750X-0.456250X0.243750X-0.456250X0*%
%ADD32C,1.100000*%
%ADD33R,2.500000X1.100000*%
%ADD34O,3.500000X1.900000*%
%ADD35RoundRect,0.375000X-0.625000X-0.375000X0.625000X-0.375000X0.625000X0.375000X-0.625000X0.375000X0*%
%ADD36RoundRect,0.500000X-0.500000X-1.400000X0.500000X-1.400000X0.500000X1.400000X-0.500000X1.400000X0*%
%ADD37RoundRect,0.250000X-1.075000X0.375000X-1.075000X-0.375000X1.075000X-0.375000X1.075000X0.375000X0*%
%ADD38R,2.600000X2.600000*%
%ADD39C,2.600000*%
G04 APERTURE END LIST*
D10*
%TO.C,U5*%
X153017500Y-91975000D03*
X153017500Y-91025000D03*
X153017500Y-90075000D03*
X150742500Y-90075000D03*
X150742500Y-91025000D03*
X150742500Y-91975000D03*
%TD*%
D11*
%TO.C,C8*%
X128330000Y-109525000D03*
X126430000Y-109525000D03*
%TD*%
D12*
%TO.C,J4*%
X180345000Y-106025000D03*
D13*
X177805000Y-106025000D03*
%TD*%
D11*
%TO.C,C2*%
X145830000Y-106025000D03*
X143930000Y-106025000D03*
%TD*%
D14*
%TO.C,Q1*%
X173380000Y-106525000D03*
D15*
X171880000Y-106612500D03*
D14*
X170380000Y-106525000D03*
%TD*%
D11*
%TO.C,C9*%
X145830000Y-109025000D03*
X143930000Y-109025000D03*
%TD*%
D16*
%TO.C,D5*%
X160880000Y-91025000D03*
X156880000Y-91025000D03*
%TD*%
D17*
%TO.C,R1*%
X167792500Y-110025000D03*
X165967500Y-110025000D03*
%TD*%
D18*
%TO.C,R5*%
X148055000Y-107525000D03*
X149880000Y-107525000D03*
%TD*%
%TO.C,R9*%
X152467500Y-110025000D03*
X154292500Y-110025000D03*
%TD*%
D19*
%TO.C,C1*%
X147880000Y-103125000D03*
X147880000Y-105025000D03*
%TD*%
D11*
%TO.C,C3*%
X154380000Y-107525000D03*
X152480000Y-107525000D03*
%TD*%
D20*
%TO.C,C5*%
X137430000Y-93025000D03*
X139330000Y-93025000D03*
%TD*%
D21*
%TO.C,R2*%
X156880000Y-100525000D03*
X156880000Y-98700000D03*
%TD*%
D22*
%TO.C,D1*%
X161442500Y-110025000D03*
X163317500Y-110025000D03*
%TD*%
D23*
%TO.C,D4*%
X181955000Y-102525000D03*
X181955000Y-99985000D03*
X175805000Y-99985000D03*
X175805000Y-102525000D03*
%TD*%
D24*
%TO.C,R15*%
X172955000Y-91025000D03*
X178880000Y-91025000D03*
%TD*%
D25*
%TO.C,U1*%
X145042500Y-102275000D03*
X145042500Y-101775000D03*
X145042500Y-101275000D03*
X145042500Y-100774999D03*
X145042500Y-100275000D03*
X145042500Y-99775000D03*
X145042500Y-99275000D03*
X145042500Y-98775000D03*
X145042500Y-98275001D03*
X145042500Y-97775000D03*
X145042500Y-97275000D03*
X145042500Y-96775000D03*
D26*
X143630000Y-95362500D03*
X143130000Y-95362500D03*
X142630000Y-95362500D03*
X142129999Y-95362500D03*
X141630000Y-95362500D03*
X141130000Y-95362500D03*
X140630000Y-95362500D03*
X140130000Y-95362500D03*
X139630001Y-95362500D03*
X139130000Y-95362500D03*
X138630000Y-95362500D03*
X138130000Y-95362500D03*
D25*
X136717500Y-96775000D03*
X136717500Y-97275000D03*
X136717500Y-97775000D03*
X136717500Y-98275001D03*
X136717500Y-98775000D03*
X136717500Y-99275000D03*
X136717500Y-99775000D03*
X136717500Y-100275000D03*
X136717500Y-100774999D03*
X136717500Y-101275000D03*
X136717500Y-101775000D03*
X136717500Y-102275000D03*
D26*
X138130000Y-103687500D03*
X138630000Y-103687500D03*
X139130000Y-103687500D03*
X139630001Y-103687500D03*
X140130000Y-103687500D03*
X140630000Y-103687500D03*
X141130000Y-103687500D03*
X141630000Y-103687500D03*
X142129999Y-103687500D03*
X142630000Y-103687500D03*
X143130000Y-103687500D03*
X143630000Y-103687500D03*
%TD*%
D18*
%TO.C,R7*%
X129555000Y-100025000D03*
X131380000Y-100025000D03*
%TD*%
D22*
%TO.C,D3*%
X148005000Y-110025000D03*
X149880000Y-110025000D03*
%TD*%
D11*
%TO.C,C4*%
X136280000Y-104525000D03*
X134380000Y-104525000D03*
%TD*%
D27*
%TO.C,R4*%
X156880000Y-103525000D03*
X156880000Y-105350000D03*
%TD*%
D28*
%TO.C,U3*%
X167180000Y-100300000D03*
D29*
X167180000Y-97760000D03*
X159560000Y-97760000D03*
X159560000Y-100300000D03*
%TD*%
D18*
%TO.C,R8*%
X129555000Y-102025000D03*
X131380000Y-102025000D03*
%TD*%
%TO.C,R12*%
X169555000Y-97025000D03*
X171380000Y-97025000D03*
%TD*%
D20*
%TO.C,C7*%
X129430000Y-104525000D03*
X131330000Y-104525000D03*
%TD*%
D30*
%TO.C,Y1*%
X152380000Y-102475000D03*
X152380000Y-97595000D03*
%TD*%
D31*
%TO.C,D2*%
X158817500Y-110025000D03*
X156942500Y-110025000D03*
%TD*%
D18*
%TO.C,R13*%
X158967500Y-94525000D03*
X160792500Y-94525000D03*
%TD*%
D17*
%TO.C,R10*%
X171380000Y-99525000D03*
X169555000Y-99525000D03*
%TD*%
D16*
%TO.C,D6*%
X169380000Y-91025000D03*
X165380000Y-91025000D03*
%TD*%
D17*
%TO.C,R3*%
X164292500Y-94525000D03*
X162467500Y-94525000D03*
%TD*%
D32*
%TO.C,J1*%
X123780000Y-103325000D03*
X123780000Y-98725000D03*
D33*
X126530000Y-104525000D03*
X126530000Y-102025000D03*
X126530000Y-100025000D03*
X126530000Y-97525000D03*
D34*
X123780000Y-106725000D03*
X123780000Y-95325000D03*
%TD*%
D35*
%TO.C,U4*%
X128230000Y-90225000D03*
X128230000Y-92525000D03*
D36*
X134530000Y-92525000D03*
D35*
X128230000Y-94825000D03*
%TD*%
D19*
%TO.C,C6*%
X147880000Y-97075000D03*
X147880000Y-98975000D03*
%TD*%
D18*
%TO.C,R6*%
X129555000Y-98025000D03*
X131380000Y-98025000D03*
%TD*%
D37*
%TO.C,L1*%
X143380000Y-90125000D03*
X143380000Y-92925000D03*
%TD*%
D28*
%TO.C,U2*%
X159580000Y-103750000D03*
D29*
X159580000Y-106290000D03*
X167200000Y-106290000D03*
X167200000Y-103750000D03*
%TD*%
D12*
%TO.C,J5*%
X180305000Y-96525000D03*
D13*
X177765000Y-96525000D03*
%TD*%
D38*
%TO.C,J3*%
X188500000Y-98480000D03*
D39*
X188500000Y-103560000D03*
%TD*%
D17*
%TO.C,R11*%
X171380000Y-102025000D03*
X169555000Y-102025000D03*
%TD*%
D12*
%TO.C,J2*%
X140920000Y-109025000D03*
D13*
X138380000Y-109025000D03*
X135840000Y-109025000D03*
X133300000Y-109025000D03*
%TD*%
D21*
%TO.C,R14*%
X156880000Y-96437500D03*
X156880000Y-94612500D03*
%TD*%
M02*
