%TF.GenerationSoftware,KiCad,Pcbnew,8.0.8*%
%TF.CreationDate,2025-03-23T20:37:34+01:00*%
%TF.ProjectId,USB-DALI,5553422d-4441-44c4-992e-6b696361645f,rev?*%
%TF.SameCoordinates,Original*%
%TF.FileFunction,Copper,L1,Top*%
%TF.FilePolarity,Positive*%
%FSLAX46Y46*%
G04 Gerber Fmt 4.6, Leading zero omitted, Abs format (unit mm)*
G04 Created by KiCad (PCBNEW 8.0.8) date 2025-03-23 20:37:34*
%MOMM*%
%LPD*%
G01*
G04 APERTURE LIST*
G04 Aperture macros list*
%AMRoundRect*
0 Rectangle with rounded corners*
0 $1 Rounding radius*
0 $2 $3 $4 $5 $6 $7 $8 $9 X,Y pos of 4 corners*
0 Add a 4 corners polygon primitive as box body*
4,1,4,$2,$3,$4,$5,$6,$7,$8,$9,$2,$3,0*
0 Add four circle primitives for the rounded corners*
1,1,$1+$1,$2,$3*
1,1,$1+$1,$4,$5*
1,1,$1+$1,$6,$7*
1,1,$1+$1,$8,$9*
0 Add four rect primitives between the rounded corners*
20,1,$1+$1,$2,$3,$4,$5,0*
20,1,$1+$1,$4,$5,$6,$7,0*
20,1,$1+$1,$6,$7,$8,$9,0*
20,1,$1+$1,$8,$9,$2,$3,0*%
%AMFreePoly0*
4,1,9,3.862500,-0.866500,0.737500,-0.866500,0.737500,-0.450000,-0.737500,-0.450000,-0.737500,0.450000,0.737500,0.450000,0.737500,0.866500,3.862500,0.866500,3.862500,-0.866500,3.862500,-0.866500,$1*%
G04 Aperture macros list end*
%TA.AperFunction,SMDPad,CuDef*%
%ADD10RoundRect,0.150000X0.512500X0.150000X-0.512500X0.150000X-0.512500X-0.150000X0.512500X-0.150000X0*%
%TD*%
%TA.AperFunction,SMDPad,CuDef*%
%ADD11RoundRect,0.250000X0.250000X0.475000X-0.250000X0.475000X-0.250000X-0.475000X0.250000X-0.475000X0*%
%TD*%
%TA.AperFunction,ComponentPad*%
%ADD12R,1.700000X1.700000*%
%TD*%
%TA.AperFunction,ComponentPad*%
%ADD13O,1.700000X1.700000*%
%TD*%
%TA.AperFunction,SMDPad,CuDef*%
%ADD14RoundRect,0.225000X-0.225000X0.425000X-0.225000X-0.425000X0.225000X-0.425000X0.225000X0.425000X0*%
%TD*%
%TA.AperFunction,SMDPad,CuDef*%
%ADD15FreePoly0,270.000000*%
%TD*%
%TA.AperFunction,SMDPad,CuDef*%
%ADD16RoundRect,0.250000X1.000000X0.650000X-1.000000X0.650000X-1.000000X-0.650000X1.000000X-0.650000X0*%
%TD*%
%TA.AperFunction,SMDPad,CuDef*%
%ADD17RoundRect,0.250000X0.262500X0.450000X-0.262500X0.450000X-0.262500X-0.450000X0.262500X-0.450000X0*%
%TD*%
%TA.AperFunction,SMDPad,CuDef*%
%ADD18RoundRect,0.250000X-0.262500X-0.450000X0.262500X-0.450000X0.262500X0.450000X-0.262500X0.450000X0*%
%TD*%
%TA.AperFunction,SMDPad,CuDef*%
%ADD19RoundRect,0.250000X-0.475000X0.250000X-0.475000X-0.250000X0.475000X-0.250000X0.475000X0.250000X0*%
%TD*%
%TA.AperFunction,SMDPad,CuDef*%
%ADD20RoundRect,0.250000X-0.250000X-0.475000X0.250000X-0.475000X0.250000X0.475000X-0.250000X0.475000X0*%
%TD*%
%TA.AperFunction,SMDPad,CuDef*%
%ADD21RoundRect,0.250000X0.450000X-0.262500X0.450000X0.262500X-0.450000X0.262500X-0.450000X-0.262500X0*%
%TD*%
%TA.AperFunction,SMDPad,CuDef*%
%ADD22RoundRect,0.243750X-0.243750X-0.456250X0.243750X-0.456250X0.243750X0.456250X-0.243750X0.456250X0*%
%TD*%
%TA.AperFunction,SMDPad,CuDef*%
%ADD23RoundRect,0.200000X0.300000X0.200000X-0.300000X0.200000X-0.300000X-0.200000X0.300000X-0.200000X0*%
%TD*%
%TA.AperFunction,SMDPad,CuDef*%
%ADD24RoundRect,0.250000X-0.362500X-1.425000X0.362500X-1.425000X0.362500X1.425000X-0.362500X1.425000X0*%
%TD*%
%TA.AperFunction,SMDPad,CuDef*%
%ADD25RoundRect,0.075000X0.662500X0.075000X-0.662500X0.075000X-0.662500X-0.075000X0.662500X-0.075000X0*%
%TD*%
%TA.AperFunction,SMDPad,CuDef*%
%ADD26RoundRect,0.075000X0.075000X0.662500X-0.075000X0.662500X-0.075000X-0.662500X0.075000X-0.662500X0*%
%TD*%
%TA.AperFunction,SMDPad,CuDef*%
%ADD27RoundRect,0.250000X-0.450000X0.262500X-0.450000X-0.262500X0.450000X-0.262500X0.450000X0.262500X0*%
%TD*%
%TA.AperFunction,ComponentPad*%
%ADD28R,1.600000X1.600000*%
%TD*%
%TA.AperFunction,ComponentPad*%
%ADD29O,1.600000X1.600000*%
%TD*%
%TA.AperFunction,ComponentPad*%
%ADD30C,1.500000*%
%TD*%
%TA.AperFunction,SMDPad,CuDef*%
%ADD31RoundRect,0.243750X0.243750X0.456250X-0.243750X0.456250X-0.243750X-0.456250X0.243750X-0.456250X0*%
%TD*%
%TA.AperFunction,SMDPad,CuDef*%
%ADD32R,2.500000X1.100000*%
%TD*%
%TA.AperFunction,HeatsinkPad*%
%ADD33O,3.500000X1.900000*%
%TD*%
%TA.AperFunction,SMDPad,CuDef*%
%ADD34RoundRect,0.375000X-0.625000X-0.375000X0.625000X-0.375000X0.625000X0.375000X-0.625000X0.375000X0*%
%TD*%
%TA.AperFunction,SMDPad,CuDef*%
%ADD35RoundRect,0.500000X-0.500000X-1.400000X0.500000X-1.400000X0.500000X1.400000X-0.500000X1.400000X0*%
%TD*%
%TA.AperFunction,SMDPad,CuDef*%
%ADD36RoundRect,0.250000X-1.075000X0.375000X-1.075000X-0.375000X1.075000X-0.375000X1.075000X0.375000X0*%
%TD*%
%TA.AperFunction,ComponentPad*%
%ADD37R,2.600000X2.600000*%
%TD*%
%TA.AperFunction,ComponentPad*%
%ADD38C,2.600000*%
%TD*%
%TA.AperFunction,ViaPad*%
%ADD39C,0.600000*%
%TD*%
%TA.AperFunction,Conductor*%
%ADD40C,0.280000*%
%TD*%
%TA.AperFunction,Conductor*%
%ADD41C,0.500000*%
%TD*%
%TA.AperFunction,Conductor*%
%ADD42C,0.200000*%
%TD*%
G04 APERTURE END LIST*
D10*
%TO.P,U5,1,SW*%
%TO.N,Net-(D5-A)*%
X153017500Y-91975000D03*
%TO.P,U5,2,GND*%
%TO.N,GND*%
X153017500Y-91025000D03*
%TO.P,U5,3,FB*%
%TO.N,Net-(U5-FB)*%
X153017500Y-90075000D03*
%TO.P,U5,4,EN*%
%TO.N,+5V*%
X150742500Y-90075000D03*
%TO.P,U5,5,IN*%
X150742500Y-91025000D03*
%TO.P,U5,6,NC*%
%TO.N,unconnected-(U5-NC-Pad6)*%
X150742500Y-91975000D03*
%TD*%
D11*
%TO.P,C8,1*%
%TO.N,+5V*%
X128330000Y-109525000D03*
%TO.P,C8,2*%
%TO.N,GND*%
X126430000Y-109525000D03*
%TD*%
D12*
%TO.P,J4,1,Pin_1*%
%TO.N,/DALI+*%
X180345000Y-106025000D03*
D13*
%TO.P,J4,2,Pin_2*%
%TO.N,Net-(J4-Pin_2)*%
X177805000Y-106025000D03*
%TD*%
D11*
%TO.P,C2,1*%
%TO.N,+3.3V*%
X145830000Y-106025000D03*
%TO.P,C2,2*%
%TO.N,GND*%
X143930000Y-106025000D03*
%TD*%
D14*
%TO.P,Q1,1,B*%
%TO.N,Net-(Q1-B)*%
X173380000Y-106525000D03*
D15*
%TO.P,Q1,2,C*%
%TO.N,Net-(D4-+)*%
X171880000Y-106612500D03*
D14*
%TO.P,Q1,3,E*%
%TO.N,Net-(D4--)*%
X170380000Y-106525000D03*
%TD*%
D11*
%TO.P,C9,1*%
%TO.N,+3.3V*%
X145830000Y-109025000D03*
%TO.P,C9,2*%
%TO.N,GND*%
X143930000Y-109025000D03*
%TD*%
D16*
%TO.P,D5,1,K*%
%TO.N,Net-(D5-K)*%
X160880000Y-91025000D03*
%TO.P,D5,2,A*%
%TO.N,Net-(D5-A)*%
X156880000Y-91025000D03*
%TD*%
D17*
%TO.P,R1,1*%
%TO.N,Net-(U1-PB7)*%
X167792500Y-110025000D03*
%TO.P,R1,2*%
%TO.N,Net-(D1-A)*%
X165967500Y-110025000D03*
%TD*%
D18*
%TO.P,R5,1*%
%TO.N,Net-(D3-K)*%
X148055000Y-107525000D03*
%TO.P,R5,2*%
%TO.N,Net-(U1-PA3)*%
X149880000Y-107525000D03*
%TD*%
%TO.P,R9,1*%
%TO.N,+3.3V*%
X152467500Y-110025000D03*
%TO.P,R9,2*%
%TO.N,Net-(D2-A)*%
X154292500Y-110025000D03*
%TD*%
D19*
%TO.P,C1,1*%
%TO.N,Net-(U1-PD0)*%
X147880000Y-103125000D03*
%TO.P,C1,2*%
%TO.N,GND*%
X147880000Y-105025000D03*
%TD*%
D11*
%TO.P,C3,1*%
%TO.N,Net-(U1-PD1)*%
X154380000Y-107525000D03*
%TO.P,C3,2*%
%TO.N,GND*%
X152480000Y-107525000D03*
%TD*%
D20*
%TO.P,C5,1*%
%TO.N,+3.3V*%
X137430000Y-93025000D03*
%TO.P,C5,2*%
%TO.N,GND*%
X139330000Y-93025000D03*
%TD*%
D21*
%TO.P,R2,1*%
%TO.N,Net-(U1-NRST)*%
X156880000Y-100525000D03*
%TO.P,R2,2*%
%TO.N,+3.3V*%
X156880000Y-98700000D03*
%TD*%
D22*
%TO.P,D1,1,K*%
%TO.N,GND*%
X161442500Y-110025000D03*
%TO.P,D1,2,A*%
%TO.N,Net-(D1-A)*%
X163317500Y-110025000D03*
%TD*%
D23*
%TO.P,D4,1*%
%TO.N,/DALI+*%
X181955000Y-102525000D03*
%TO.P,D4,2*%
%TO.N,/DALI-*%
X181955000Y-99985000D03*
%TO.P,D4,3,+*%
%TO.N,Net-(D4-+)*%
X175805000Y-99985000D03*
%TO.P,D4,4,-*%
%TO.N,Net-(D4--)*%
X175805000Y-102525000D03*
%TD*%
D24*
%TO.P,R15,1*%
%TO.N,Net-(D6-K)*%
X172955000Y-91025000D03*
%TO.P,R15,2*%
%TO.N,Net-(J4-Pin_2)*%
X178880000Y-91025000D03*
%TD*%
D25*
%TO.P,U1,1,VBAT*%
%TO.N,+3.3V*%
X145042500Y-102275000D03*
%TO.P,U1,2,PC13*%
%TO.N,unconnected-(U1-PC13-Pad2)*%
X145042500Y-101775000D03*
%TO.P,U1,3,PC14*%
%TO.N,unconnected-(U1-PC14-Pad3)*%
X145042500Y-101275000D03*
%TO.P,U1,4,PC15*%
%TO.N,unconnected-(U1-PC15-Pad4)*%
X145042500Y-100774999D03*
%TO.P,U1,5,PD0*%
%TO.N,Net-(U1-PD0)*%
X145042500Y-100275000D03*
%TO.P,U1,6,PD1*%
%TO.N,Net-(U1-PD1)*%
X145042500Y-99775000D03*
%TO.P,U1,7,NRST*%
%TO.N,Net-(U1-NRST)*%
X145042500Y-99275000D03*
%TO.P,U1,8,VSSA*%
%TO.N,GND*%
X145042500Y-98775000D03*
%TO.P,U1,9,VDDA*%
%TO.N,+3.3V*%
X145042500Y-98275001D03*
%TO.P,U1,10,PA0*%
%TO.N,unconnected-(U1-PA0-Pad10)*%
X145042500Y-97775000D03*
%TO.P,U1,11,PA1*%
%TO.N,unconnected-(U1-PA1-Pad11)*%
X145042500Y-97275000D03*
%TO.P,U1,12,PA2*%
%TO.N,unconnected-(U1-PA2-Pad12)*%
X145042500Y-96775000D03*
D26*
%TO.P,U1,13,PA3*%
%TO.N,Net-(U1-PA3)*%
X143630000Y-95362500D03*
%TO.P,U1,14,PA4*%
%TO.N,unconnected-(U1-PA4-Pad14)*%
X143130000Y-95362500D03*
%TO.P,U1,15,PA5*%
%TO.N,unconnected-(U1-PA5-Pad15)*%
X142630000Y-95362500D03*
%TO.P,U1,16,PA6*%
%TO.N,unconnected-(U1-PA6-Pad16)*%
X142129999Y-95362500D03*
%TO.P,U1,17,PA7*%
%TO.N,unconnected-(U1-PA7-Pad17)*%
X141630000Y-95362500D03*
%TO.P,U1,18,PB0*%
%TO.N,unconnected-(U1-PB0-Pad18)*%
X141130000Y-95362500D03*
%TO.P,U1,19,PB1*%
%TO.N,unconnected-(U1-PB1-Pad19)*%
X140630000Y-95362500D03*
%TO.P,U1,20,PB2*%
%TO.N,unconnected-(U1-PB2-Pad20)*%
X140130000Y-95362500D03*
%TO.P,U1,21,PB10*%
%TO.N,unconnected-(U1-PB10-Pad21)*%
X139630001Y-95362500D03*
%TO.P,U1,22,PB11*%
%TO.N,unconnected-(U1-PB11-Pad22)*%
X139130000Y-95362500D03*
%TO.P,U1,23,VSS*%
%TO.N,GND*%
X138630000Y-95362500D03*
%TO.P,U1,24,VDD*%
%TO.N,+3.3V*%
X138130000Y-95362500D03*
D25*
%TO.P,U1,25,PB12*%
%TO.N,unconnected-(U1-PB12-Pad25)*%
X136717500Y-96775000D03*
%TO.P,U1,26,PB13*%
%TO.N,unconnected-(U1-PB13-Pad26)*%
X136717500Y-97275000D03*
%TO.P,U1,27,PB14*%
%TO.N,unconnected-(U1-PB14-Pad27)*%
X136717500Y-97775000D03*
%TO.P,U1,28,PB15*%
%TO.N,unconnected-(U1-PB15-Pad28)*%
X136717500Y-98275001D03*
%TO.P,U1,29,PA8*%
%TO.N,unconnected-(U1-PA8-Pad29)*%
X136717500Y-98775000D03*
%TO.P,U1,30,PA9*%
%TO.N,unconnected-(U1-PA9-Pad30)*%
X136717500Y-99275000D03*
%TO.P,U1,31,PA10*%
%TO.N,unconnected-(U1-PA10-Pad31)*%
X136717500Y-99775000D03*
%TO.P,U1,32,PA11*%
%TO.N,/USB+*%
X136717500Y-100275000D03*
%TO.P,U1,33,PA12*%
%TO.N,/USB-*%
X136717500Y-100774999D03*
%TO.P,U1,34,PA13*%
%TO.N,Net-(J2-Pin_3)*%
X136717500Y-101275000D03*
%TO.P,U1,35,VSS*%
%TO.N,GND*%
X136717500Y-101775000D03*
%TO.P,U1,36,VDD*%
%TO.N,+3.3V*%
X136717500Y-102275000D03*
D26*
%TO.P,U1,37,PA14*%
%TO.N,Net-(J2-Pin_2)*%
X138130000Y-103687500D03*
%TO.P,U1,38,PA15*%
%TO.N,unconnected-(U1-PA15-Pad38)*%
X138630000Y-103687500D03*
%TO.P,U1,39,PB3*%
%TO.N,unconnected-(U1-PB3-Pad39)*%
X139130000Y-103687500D03*
%TO.P,U1,40,PB4*%
%TO.N,unconnected-(U1-PB4-Pad40)*%
X139630001Y-103687500D03*
%TO.P,U1,41,PB5*%
%TO.N,unconnected-(U1-PB5-Pad41)*%
X140130000Y-103687500D03*
%TO.P,U1,42,PB6*%
%TO.N,unconnected-(U1-PB6-Pad42)*%
X140630000Y-103687500D03*
%TO.P,U1,43,PB7*%
%TO.N,Net-(U1-PB7)*%
X141130000Y-103687500D03*
%TO.P,U1,44,BOOT0*%
%TO.N,GND*%
X141630000Y-103687500D03*
%TO.P,U1,45,PB8*%
%TO.N,unconnected-(U1-PB8-Pad45)*%
X142129999Y-103687500D03*
%TO.P,U1,46,PB9*%
%TO.N,unconnected-(U1-PB9-Pad46)*%
X142630000Y-103687500D03*
%TO.P,U1,47,VSS*%
%TO.N,GND*%
X143130000Y-103687500D03*
%TO.P,U1,48,VDD*%
%TO.N,+3.3V*%
X143630000Y-103687500D03*
%TD*%
D18*
%TO.P,R7,1*%
%TO.N,/D+*%
X129555000Y-100025000D03*
%TO.P,R7,2*%
%TO.N,/USB-*%
X131380000Y-100025000D03*
%TD*%
D22*
%TO.P,D3,1,K*%
%TO.N,Net-(D3-K)*%
X148005000Y-110025000D03*
%TO.P,D3,2,A*%
%TO.N,+3.3V*%
X149880000Y-110025000D03*
%TD*%
D11*
%TO.P,C4,1*%
%TO.N,+3.3V*%
X136280000Y-104525000D03*
%TO.P,C4,2*%
%TO.N,GND*%
X134380000Y-104525000D03*
%TD*%
D27*
%TO.P,R4,1*%
%TO.N,Net-(R4-Pad1)*%
X156880000Y-103525000D03*
%TO.P,R4,2*%
%TO.N,Net-(U1-PB7)*%
X156880000Y-105350000D03*
%TD*%
D28*
%TO.P,U3,1*%
%TO.N,Net-(D4-+)*%
X167180000Y-100300000D03*
D29*
%TO.P,U3,2*%
%TO.N,Net-(R12-Pad1)*%
X167180000Y-97760000D03*
%TO.P,U3,3*%
%TO.N,GND*%
X159560000Y-97760000D03*
%TO.P,U3,4*%
%TO.N,Net-(U1-PA3)*%
X159560000Y-100300000D03*
%TD*%
D18*
%TO.P,R8,1*%
%TO.N,/D-*%
X129555000Y-102025000D03*
%TO.P,R8,2*%
%TO.N,/USB+*%
X131380000Y-102025000D03*
%TD*%
%TO.P,R12,1*%
%TO.N,Net-(R12-Pad1)*%
X169555000Y-97025000D03*
%TO.P,R12,2*%
%TO.N,Net-(D4--)*%
X171380000Y-97025000D03*
%TD*%
D20*
%TO.P,C7,1*%
%TO.N,+5V*%
X129430000Y-104525000D03*
%TO.P,C7,2*%
%TO.N,GND*%
X131330000Y-104525000D03*
%TD*%
D30*
%TO.P,Y1,1,1*%
%TO.N,Net-(U1-PD0)*%
X152380000Y-102475000D03*
%TO.P,Y1,2,2*%
%TO.N,Net-(U1-PD1)*%
X152380000Y-97595000D03*
%TD*%
D31*
%TO.P,D2,1,K*%
%TO.N,GND*%
X158817500Y-110025000D03*
%TO.P,D2,2,A*%
%TO.N,Net-(D2-A)*%
X156942500Y-110025000D03*
%TD*%
D18*
%TO.P,R13,1*%
%TO.N,Net-(U5-FB)*%
X158967500Y-94525000D03*
%TO.P,R13,2*%
%TO.N,Net-(D5-K)*%
X160792500Y-94525000D03*
%TD*%
D17*
%TO.P,R10,1*%
%TO.N,Net-(Q1-B)*%
X171380000Y-99525000D03*
%TO.P,R10,2*%
%TO.N,Net-(R10-Pad2)*%
X169555000Y-99525000D03*
%TD*%
D16*
%TO.P,D6,1,K*%
%TO.N,Net-(D6-K)*%
X169380000Y-91025000D03*
%TO.P,D6,2,A*%
%TO.N,Net-(D5-K)*%
X165380000Y-91025000D03*
%TD*%
D17*
%TO.P,R3,1*%
%TO.N,Net-(U1-PA3)*%
X164292500Y-94525000D03*
%TO.P,R3,2*%
%TO.N,+3.3V*%
X162467500Y-94525000D03*
%TD*%
D32*
%TO.P,J1,1,VBUS*%
%TO.N,+5V*%
X126530000Y-104525000D03*
%TO.P,J1,2,D-*%
%TO.N,/D-*%
X126530000Y-102025000D03*
%TO.P,J1,3,D+*%
%TO.N,/D+*%
X126530000Y-100025000D03*
%TO.P,J1,4,GND*%
%TO.N,GND*%
X126530000Y-97525000D03*
D33*
%TO.P,J1,5,Shield*%
X123780000Y-106725000D03*
X123780000Y-95325000D03*
%TD*%
D34*
%TO.P,U4,1,GND*%
%TO.N,GND*%
X128230000Y-90225000D03*
%TO.P,U4,2,VO*%
%TO.N,+3.3V*%
X128230000Y-92525000D03*
D35*
X134530000Y-92525000D03*
D34*
%TO.P,U4,3,VI*%
%TO.N,+5V*%
X128230000Y-94825000D03*
%TD*%
D19*
%TO.P,C6,1*%
%TO.N,+3.3V*%
X147880000Y-97075000D03*
%TO.P,C6,2*%
%TO.N,GND*%
X147880000Y-98975000D03*
%TD*%
D18*
%TO.P,R6,1*%
%TO.N,/D+*%
X129555000Y-98025000D03*
%TO.P,R6,2*%
%TO.N,+3.3V*%
X131380000Y-98025000D03*
%TD*%
D36*
%TO.P,L1,1,1*%
%TO.N,+5V*%
X143380000Y-90125000D03*
%TO.P,L1,2,2*%
%TO.N,Net-(D5-A)*%
X143380000Y-92925000D03*
%TD*%
D28*
%TO.P,U2,1*%
%TO.N,Net-(R4-Pad1)*%
X159580000Y-103750000D03*
D29*
%TO.P,U2,2*%
%TO.N,GND*%
X159580000Y-106290000D03*
%TO.P,U2,3*%
%TO.N,Net-(R10-Pad2)*%
X167200000Y-106290000D03*
%TO.P,U2,4*%
%TO.N,Net-(D4-+)*%
X167200000Y-103750000D03*
%TD*%
D12*
%TO.P,J5,1,Pin_1*%
%TO.N,/DALI-*%
X180305000Y-96525000D03*
D13*
%TO.P,J5,2,Pin_2*%
%TO.N,GND*%
X177765000Y-96525000D03*
%TD*%
D37*
%TO.P,J3,1,Pin_1*%
%TO.N,/DALI-*%
X188500000Y-98480000D03*
D38*
%TO.P,J3,2,Pin_2*%
%TO.N,/DALI+*%
X188500000Y-103560000D03*
%TD*%
D17*
%TO.P,R11,1*%
%TO.N,Net-(D4--)*%
X171380000Y-102025000D03*
%TO.P,R11,2*%
%TO.N,Net-(R10-Pad2)*%
X169555000Y-102025000D03*
%TD*%
D12*
%TO.P,J2,1,Pin_1*%
%TO.N,GND*%
X140920000Y-109025000D03*
D13*
%TO.P,J2,2,Pin_2*%
%TO.N,Net-(J2-Pin_2)*%
X138380000Y-109025000D03*
%TO.P,J2,3,Pin_3*%
%TO.N,Net-(J2-Pin_3)*%
X135840000Y-109025000D03*
%TO.P,J2,4,Pin_4*%
%TO.N,+3.3V*%
X133300000Y-109025000D03*
%TD*%
D21*
%TO.P,R14,1*%
%TO.N,GND*%
X156880000Y-96437500D03*
%TO.P,R14,2*%
%TO.N,Net-(U5-FB)*%
X156880000Y-94612500D03*
%TD*%
D39*
%TO.N,GND*%
X154100000Y-91025000D03*
X142880000Y-106025000D03*
X137950000Y-101635000D03*
X132380000Y-104525000D03*
X126875000Y-90225000D03*
X138924290Y-96585249D03*
X160150000Y-110025000D03*
X143100000Y-109025000D03*
X134380000Y-105525000D03*
X143850000Y-98915001D03*
X151600000Y-107525000D03*
X142400000Y-102200000D03*
X155850000Y-96450000D03*
X149000000Y-98975000D03*
X149050000Y-105000000D03*
X125380000Y-109525000D03*
%TD*%
D40*
%TO.N,GND*%
X142150000Y-102200000D02*
X141630000Y-102720000D01*
X131330000Y-104525000D02*
X132380000Y-104525000D01*
X143130000Y-102630000D02*
X143130000Y-103687500D01*
X154100000Y-91025000D02*
X153017500Y-91025000D01*
X155862500Y-96437500D02*
X156880000Y-96437500D01*
D41*
X126530000Y-97525000D02*
X124330000Y-95325000D01*
D40*
X142400000Y-102200000D02*
X142700000Y-102200000D01*
X138924290Y-96585249D02*
X138630000Y-96290959D01*
X138630000Y-93725000D02*
X139330000Y-93025000D01*
X138630000Y-96290959D02*
X138630000Y-95362500D01*
X141630000Y-102720000D02*
X141630000Y-103687500D01*
D42*
X147680000Y-98775000D02*
X147880000Y-98975000D01*
D40*
X142400000Y-102200000D02*
X142150000Y-102200000D01*
X143850000Y-98915001D02*
X143990001Y-98775000D01*
D42*
X137950000Y-101635000D02*
X137810000Y-101775000D01*
X134380000Y-104525000D02*
X134380000Y-105525000D01*
D40*
X160150000Y-110025000D02*
X161442500Y-110025000D01*
D42*
X137810000Y-101775000D02*
X136717500Y-101775000D01*
D40*
X152480000Y-107525000D02*
X151600000Y-107525000D01*
X142700000Y-102200000D02*
X143130000Y-102630000D01*
D41*
X126875000Y-90225000D02*
X128230000Y-90225000D01*
D40*
X138630000Y-95362500D02*
X138630000Y-93725000D01*
X149050000Y-105000000D02*
X149025000Y-105025000D01*
D42*
X140920000Y-109025000D02*
X140920000Y-109010000D01*
D40*
X143930000Y-109025000D02*
X143100000Y-109025000D01*
D41*
X126430000Y-109525000D02*
X125380000Y-109525000D01*
D40*
X143930000Y-106025000D02*
X142880000Y-106025000D01*
X149025000Y-105025000D02*
X147880000Y-105025000D01*
D42*
X143130000Y-105225000D02*
X143930000Y-106025000D01*
X123780000Y-95325000D02*
X123780000Y-94675000D01*
D40*
X158817500Y-110025000D02*
X160150000Y-110025000D01*
D42*
X124330000Y-95325000D02*
X123780000Y-95325000D01*
D40*
X155850000Y-96450000D02*
X155862500Y-96437500D01*
X143990001Y-98775000D02*
X145042500Y-98775000D01*
X149000000Y-98975000D02*
X147880000Y-98975000D01*
D42*
X143130000Y-103687500D02*
X143130000Y-105225000D01*
D40*
%TO.N,+3.3V*%
X160967500Y-96025000D02*
X162467500Y-94525000D01*
X133300000Y-109025000D02*
X134525000Y-110250000D01*
X143975000Y-102275000D02*
X141880000Y-100180000D01*
X137430000Y-92770000D02*
X137430000Y-93025000D01*
X152467500Y-110025000D02*
X149880000Y-110025000D01*
X136717500Y-102275000D02*
X138675000Y-102275000D01*
X138130000Y-93725000D02*
X137430000Y-93025000D01*
X145855000Y-106050000D02*
X145830000Y-106025000D01*
X137100000Y-109805000D02*
X137100000Y-105345000D01*
X152205000Y-94025000D02*
X142075000Y-94025000D01*
X136655000Y-110250000D02*
X137100000Y-109805000D01*
X139900000Y-91850000D02*
X138350000Y-91850000D01*
X148405000Y-106050000D02*
X145855000Y-106050000D01*
X136930000Y-92525000D02*
X137430000Y-93025000D01*
X149880000Y-110025000D02*
X149000000Y-109145000D01*
X149000000Y-109145000D02*
X149000000Y-106645000D01*
X145042500Y-98275001D02*
X141880000Y-98275001D01*
X145830000Y-106025000D02*
X143630000Y-103825000D01*
X145042500Y-98275001D02*
X146679999Y-98275001D01*
X131380000Y-98025000D02*
X131380000Y-95675000D01*
X149000000Y-106645000D02*
X148405000Y-106050000D01*
X139630001Y-98275001D02*
X138130000Y-96775000D01*
X136717500Y-102275000D02*
X136280000Y-102712500D01*
X145830000Y-106025000D02*
X145605000Y-105800000D01*
X143630000Y-103825000D02*
X143630000Y-103687500D01*
X134530000Y-92525000D02*
X136930000Y-92525000D01*
X145830000Y-106025000D02*
X145830000Y-109025000D01*
X159555000Y-96025000D02*
X160967500Y-96025000D01*
X156880000Y-98700000D02*
X152205000Y-94025000D01*
X140272591Y-100677409D02*
X140272591Y-98275001D01*
X138675000Y-102275000D02*
X140272591Y-100677409D01*
X145605000Y-102837500D02*
X145042500Y-102275000D01*
X138130000Y-96775000D02*
X138130000Y-95362500D01*
X140272591Y-98275001D02*
X139630001Y-98275001D01*
X134525000Y-110250000D02*
X136655000Y-110250000D01*
X156880000Y-98700000D02*
X159555000Y-96025000D01*
X146679999Y-98275001D02*
X147880000Y-97075000D01*
X137100000Y-105345000D02*
X136280000Y-104525000D01*
X131380000Y-95675000D02*
X134530000Y-92525000D01*
X138350000Y-91850000D02*
X137430000Y-92770000D01*
X141880000Y-98275001D02*
X140272591Y-98275001D01*
X142075000Y-94025000D02*
X139900000Y-91850000D01*
X138130000Y-95362500D02*
X138130000Y-93725000D01*
X136280000Y-102712500D02*
X136280000Y-104525000D01*
X141880000Y-100180000D02*
X141880000Y-98275001D01*
X145605000Y-105800000D02*
X145605000Y-102837500D01*
X145042500Y-102275000D02*
X143975000Y-102275000D01*
%TO.N,Net-(U1-PD0)*%
X145042500Y-100275000D02*
X145875000Y-100275000D01*
X148225000Y-102475000D02*
X148572157Y-102475000D01*
X148572157Y-102475000D02*
X152380000Y-102475000D01*
X145875000Y-100275000D02*
X148075000Y-102475000D01*
X147880000Y-102475000D02*
X148225000Y-102475000D01*
X148075000Y-102475000D02*
X148225000Y-102475000D01*
X147880000Y-103125000D02*
X147880000Y-102475000D01*
%TO.N,Net-(U1-PD1)*%
X154380000Y-107525000D02*
X154380000Y-99595000D01*
X145042500Y-99775000D02*
X146175000Y-99775000D01*
X146175000Y-99775000D02*
X146730000Y-100330000D01*
X146730000Y-100330000D02*
X149645000Y-100330000D01*
X149645000Y-100330000D02*
X152380000Y-97595000D01*
X154380000Y-99595000D02*
X152380000Y-97595000D01*
D41*
%TO.N,+5V*%
X126530000Y-107725000D02*
X128330000Y-109525000D01*
X130080000Y-94825000D02*
X131380000Y-93525000D01*
X150742500Y-91025000D02*
X150742500Y-90075000D01*
X150742500Y-90075000D02*
X150692500Y-90125000D01*
X121380000Y-94625000D02*
X122480000Y-93525000D01*
X126530000Y-104525000D02*
X126530000Y-107725000D01*
X122480000Y-93525000D02*
X126380000Y-93525000D01*
X131380000Y-91025000D02*
X132880000Y-89525000D01*
X122880000Y-104525000D02*
X121380000Y-103025000D01*
X142280000Y-89525000D02*
X143380000Y-90625000D01*
X126530000Y-104525000D02*
X122880000Y-104525000D01*
X127680000Y-94825000D02*
X128230000Y-94825000D01*
X128230000Y-94825000D02*
X130080000Y-94825000D01*
X126380000Y-93525000D02*
X127680000Y-94825000D01*
X150692500Y-90125000D02*
X143380000Y-90125000D01*
X131380000Y-93525000D02*
X131380000Y-91025000D01*
X132880000Y-89525000D02*
X142280000Y-89525000D01*
X121380000Y-103025000D02*
X121380000Y-94625000D01*
D40*
X129430000Y-104525000D02*
X126530000Y-104525000D01*
D41*
%TO.N,/DALI-*%
X181955000Y-99985000D02*
X182065000Y-99875000D01*
X182065000Y-99875000D02*
X187105000Y-99875000D01*
X181955000Y-99985000D02*
X181955000Y-98175000D01*
X181955000Y-98175000D02*
X180305000Y-96525000D01*
X187105000Y-99875000D02*
X188500000Y-98480000D01*
D40*
%TO.N,Net-(D1-A)*%
X165967500Y-110025000D02*
X163317500Y-110025000D01*
D41*
%TO.N,/DALI+*%
X181955000Y-102525000D02*
X181955000Y-104415000D01*
X181955000Y-102525000D02*
X187465000Y-102525000D01*
X181955000Y-104415000D02*
X180345000Y-106025000D01*
X187465000Y-102525000D02*
X188500000Y-103560000D01*
D40*
%TO.N,Net-(D2-A)*%
X156942500Y-110025000D02*
X154292500Y-110025000D01*
%TO.N,Net-(D4--)*%
X171380000Y-102025000D02*
X170450000Y-101095000D01*
X170380000Y-106525000D02*
X170380000Y-103025000D01*
X170450000Y-101095000D02*
X170450000Y-97955000D01*
X175805000Y-101450000D02*
X171380000Y-97025000D01*
X170450000Y-97955000D02*
X171380000Y-97025000D01*
X175805000Y-102525000D02*
X175805000Y-101450000D01*
X170380000Y-103025000D02*
X171380000Y-102025000D01*
D42*
%TO.N,Net-(D3-K)*%
X148005000Y-107575000D02*
X148055000Y-107525000D01*
D40*
X148005000Y-110025000D02*
X148005000Y-107575000D01*
%TO.N,Net-(D4-+)*%
X167200000Y-103750000D02*
X166060000Y-104890000D01*
X167247796Y-107950000D02*
X173450000Y-107950000D01*
X167180000Y-100300000D02*
X167180000Y-100325000D01*
X166060000Y-106762204D02*
X167247796Y-107950000D01*
X176850000Y-101030000D02*
X175805000Y-99985000D01*
X173450000Y-107950000D02*
X176850000Y-104550000D01*
X167200000Y-100345000D02*
X167200000Y-103750000D01*
X176850000Y-104550000D02*
X176850000Y-101030000D01*
X167180000Y-100325000D02*
X167200000Y-100345000D01*
X166060000Y-104890000D02*
X166060000Y-106762204D01*
D42*
%TO.N,Net-(D5-K)*%
X165292500Y-91112500D02*
X165380000Y-91025000D01*
X160792500Y-91112500D02*
X160880000Y-91025000D01*
X160792500Y-94525000D02*
X160792500Y-91112500D01*
D41*
X160880000Y-91025000D02*
X165380000Y-91025000D01*
%TO.N,Net-(D5-A)*%
X145480000Y-92925000D02*
X145880000Y-92525000D01*
X149380000Y-92525000D02*
X149880000Y-93025000D01*
X155930000Y-91975000D02*
X156880000Y-91025000D01*
X149880000Y-93025000D02*
X151967500Y-93025000D01*
X143380000Y-92925000D02*
X145480000Y-92925000D01*
X153017500Y-91975000D02*
X155930000Y-91975000D01*
X151967500Y-93025000D02*
X153017500Y-91975000D01*
X145880000Y-92525000D02*
X149380000Y-92525000D01*
%TO.N,Net-(D6-K)*%
X169380000Y-91025000D02*
X172955000Y-91025000D01*
D42*
%TO.N,Net-(J2-Pin_2)*%
X138130000Y-108775000D02*
X138130000Y-103687500D01*
X138380000Y-109025000D02*
X138130000Y-108775000D01*
%TO.N,Net-(J2-Pin_3)*%
X133380000Y-106565000D02*
X133380000Y-103776904D01*
X135840000Y-109025000D02*
X133380000Y-106565000D01*
X135881904Y-101275000D02*
X136717500Y-101275000D01*
X133380000Y-103776904D02*
X135881904Y-101275000D01*
D40*
%TO.N,Net-(J4-Pin_2)*%
X179155000Y-91300000D02*
X178880000Y-91025000D01*
X179080000Y-91375000D02*
X179155000Y-91300000D01*
X179080000Y-104675000D02*
X179080000Y-91375000D01*
X177805000Y-105950000D02*
X179080000Y-104675000D01*
X177805000Y-106025000D02*
X177805000Y-105950000D01*
%TO.N,Net-(Q1-B)*%
X173380000Y-101525000D02*
X171380000Y-99525000D01*
X173380000Y-106525000D02*
X173380000Y-101525000D01*
%TO.N,Net-(U1-PB7)*%
X142280000Y-109273529D02*
X144306471Y-111300000D01*
X141130000Y-106935000D02*
X142280000Y-108085000D01*
X166517500Y-108750000D02*
X167792500Y-110025000D01*
X160280000Y-108750000D02*
X166517500Y-108750000D01*
X166517500Y-111300000D02*
X167792500Y-110025000D01*
X142280000Y-108085000D02*
X142280000Y-109273529D01*
X144306471Y-111300000D02*
X166517500Y-111300000D01*
X141130000Y-103687500D02*
X141130000Y-106935000D01*
X156880000Y-105350000D02*
X160280000Y-108750000D01*
%TO.N,Net-(U1-NRST)*%
X154880000Y-98425000D02*
X154880000Y-99225000D01*
X156180000Y-100525000D02*
X156880000Y-100525000D01*
X151800000Y-96400000D02*
X152855000Y-96400000D01*
X150880000Y-97320000D02*
X151800000Y-96400000D01*
X154880000Y-99225000D02*
X156180000Y-100525000D01*
X145042500Y-99275000D02*
X146425000Y-99275000D01*
X146425000Y-99275000D02*
X147000000Y-99850000D01*
X150880000Y-98373529D02*
X150880000Y-97320000D01*
X147000000Y-99850000D02*
X149403529Y-99850000D01*
X152855000Y-96400000D02*
X154880000Y-98425000D01*
X149403529Y-99850000D02*
X150880000Y-98373529D01*
%TO.N,Net-(U1-PA3)*%
X155380000Y-98880000D02*
X156150000Y-99650000D01*
X155350000Y-108150000D02*
X154910000Y-108590000D01*
X157108812Y-101850000D02*
X155900000Y-101850000D01*
X159600000Y-100300000D02*
X164292500Y-95607500D01*
X158050000Y-99650000D02*
X158910000Y-99650000D01*
X150945000Y-108590000D02*
X149880000Y-107525000D01*
X158050000Y-99650000D02*
X158050000Y-100908812D01*
X155900000Y-101850000D02*
X155350000Y-102400000D01*
X152030000Y-94675000D02*
X155380000Y-98025000D01*
X158050000Y-100908812D02*
X157108812Y-101850000D01*
X143630000Y-95362500D02*
X144317500Y-94675000D01*
X144317500Y-94675000D02*
X152030000Y-94675000D01*
X159560000Y-100300000D02*
X159600000Y-100300000D01*
X164292500Y-95607500D02*
X164292500Y-94525000D01*
X155350000Y-102400000D02*
X155350000Y-108150000D01*
X155380000Y-98025000D02*
X155380000Y-98880000D01*
X158910000Y-99650000D02*
X159560000Y-100300000D01*
X154910000Y-108590000D02*
X150945000Y-108590000D01*
X156150000Y-99650000D02*
X158050000Y-99650000D01*
D42*
%TO.N,Net-(R4-Pad1)*%
X156880000Y-103525000D02*
X159355000Y-103525000D01*
X159355000Y-103525000D02*
X159580000Y-103750000D01*
D40*
%TO.N,Net-(U5-FB)*%
X153317500Y-89775000D02*
X153017500Y-90075000D01*
X158880000Y-94612500D02*
X158967500Y-94525000D01*
X156880000Y-94612500D02*
X158880000Y-94612500D01*
X158880000Y-90525000D02*
X158130000Y-89775000D01*
X158880000Y-94437500D02*
X158880000Y-90525000D01*
X158967500Y-94525000D02*
X158880000Y-94437500D01*
X158130000Y-89775000D02*
X153317500Y-89775000D01*
%TO.N,Net-(R10-Pad2)*%
X169555000Y-103350000D02*
X169555000Y-102025000D01*
X167200000Y-105705000D02*
X169555000Y-103350000D01*
X167200000Y-106290000D02*
X167200000Y-105705000D01*
X169555000Y-102025000D02*
X169555000Y-99525000D01*
%TO.N,Net-(R12-Pad1)*%
X167180000Y-97760000D02*
X168820000Y-97760000D01*
X168820000Y-97760000D02*
X169555000Y-97025000D01*
D42*
%TO.N,/D-*%
X128005000Y-101250000D02*
X127230000Y-102025000D01*
X128592500Y-101250000D02*
X128005000Y-101250000D01*
X129367500Y-102025000D02*
X128592500Y-101250000D01*
X127230000Y-102025000D02*
X126530000Y-102025000D01*
X129555000Y-102025000D02*
X129367500Y-102025000D01*
%TO.N,/D+*%
X128592500Y-100800000D02*
X128005000Y-100800000D01*
X129555000Y-100025000D02*
X129367500Y-100025000D01*
X129367500Y-100025000D02*
X128592500Y-100800000D01*
X129555000Y-98025000D02*
X129555000Y-100025000D01*
X128005000Y-100800000D02*
X127230000Y-100025000D01*
X127230000Y-100025000D02*
X126530000Y-100025000D01*
%TO.N,/USB-*%
X133492241Y-103025000D02*
X130880000Y-103025000D01*
X135742242Y-100774999D02*
X133492241Y-103025000D01*
X130567500Y-102712500D02*
X130567500Y-100837500D01*
X130880000Y-103025000D02*
X130567500Y-102712500D01*
X136717500Y-100774999D02*
X135742242Y-100774999D01*
X130567500Y-100837500D02*
X131380000Y-100025000D01*
%TO.N,/USB+*%
X133984072Y-101579725D02*
X133984071Y-101579724D01*
X133448085Y-101043738D02*
X133834166Y-101429819D01*
X134958466Y-100605330D02*
X135132914Y-100430881D01*
X133073318Y-101118691D02*
X133148273Y-101043737D01*
X131380000Y-102025000D02*
X131880000Y-102525000D01*
X131880000Y-102525000D02*
X133038795Y-102525000D01*
X133984071Y-101579724D02*
X134079530Y-101675183D01*
X134358838Y-101204957D02*
X134208932Y-101055051D01*
X135132914Y-100430881D02*
X135288795Y-100275000D01*
X133822852Y-100369157D02*
X133897807Y-100294203D01*
X134270449Y-101675183D02*
X134454296Y-101491335D01*
X135288795Y-100275000D02*
X136717500Y-100275000D01*
X134883514Y-100680284D02*
X134958466Y-100605330D01*
X133459399Y-101804583D02*
X133073319Y-101418503D01*
X134454296Y-101300416D02*
X134358836Y-101204956D01*
X133834166Y-101429819D02*
X133984072Y-101579725D01*
X134208932Y-101055051D02*
X133822852Y-100668971D01*
X133038795Y-102525000D02*
X133459398Y-102104397D01*
X134358836Y-101204956D02*
X134358838Y-101204957D01*
X134197619Y-100294204D02*
X134583700Y-100680285D01*
X133822852Y-100668971D02*
G75*
G02*
X133822888Y-100369193I149948J149871D01*
G01*
X133073319Y-101418503D02*
G75*
G02*
X133073321Y-101118695I149881J149903D01*
G01*
X133148273Y-101043737D02*
G75*
G02*
X133448107Y-101043716I149927J-149863D01*
G01*
X134454296Y-101491335D02*
G75*
G03*
X134454272Y-101300440I-95496J95435D01*
G01*
X133459398Y-102104397D02*
G75*
G03*
X133459389Y-101804594I-149898J149897D01*
G01*
X134583700Y-100680285D02*
G75*
G03*
X134883507Y-100680278I149900J149885D01*
G01*
X134079530Y-101675183D02*
G75*
G03*
X134270449Y-101675184I95460J95462D01*
G01*
X133897807Y-100294203D02*
G75*
G02*
X134197606Y-100294216I149893J-149897D01*
G01*
%TD*%
M02*
