%TF.GenerationSoftware,KiCad,Pcbnew,8.0.8*%
%TF.CreationDate,2025-03-23T20:37:34+01:00*%
%TF.ProjectId,USB-DALI,5553422d-4441-44c4-992e-6b696361645f,rev?*%
%TF.SameCoordinates,Original*%
%TF.FileFunction,Legend,Bot*%
%TF.FilePolarity,Positive*%
%FSLAX46Y46*%
G04 Gerber Fmt 4.6, Leading zero omitted, Abs format (unit mm)*
G04 Created by KiCad (PCBNEW 8.0.8) date 2025-03-23 20:37:34*
%MOMM*%
%LPD*%
G01*
G04 APERTURE LIST*
%ADD10C,0.200000*%
%ADD11C,0.300000*%
G04 APERTURE END LIST*
D10*
X182773607Y-111676394D02*
G75*
G02*
X182326393Y-111676394I-223607J0D01*
G01*
X182326393Y-111676394D02*
G75*
G02*
X182773607Y-111676394I223607J0D01*
G01*
X182500000Y-111150000D02*
X182600000Y-111150000D01*
X182600000Y-111450000D01*
X182500000Y-111450000D01*
X182500000Y-111150000D01*
X182773607Y-112423606D02*
G75*
G02*
X182326393Y-112423606I-223607J0D01*
G01*
X182326393Y-112423606D02*
G75*
G02*
X182773607Y-112423606I223607J0D01*
G01*
X183650000Y-110650000D02*
X185725000Y-110650000D01*
X185725000Y-111350000D01*
X183650000Y-111350000D01*
X183650000Y-110650000D01*
G36*
X183650000Y-110650000D02*
G01*
X185725000Y-110650000D01*
X185725000Y-111350000D01*
X183650000Y-111350000D01*
X183650000Y-110650000D01*
G37*
X183523607Y-112423606D02*
G75*
G02*
X183076393Y-112423606I-223607J0D01*
G01*
X183076393Y-112423606D02*
G75*
G02*
X183523607Y-112423606I223607J0D01*
G01*
X184273607Y-112423606D02*
G75*
G02*
X183826393Y-112423606I-223607J0D01*
G01*
X183826393Y-112423606D02*
G75*
G02*
X184273607Y-112423606I223607J0D01*
G01*
X182775000Y-112350000D02*
X183025000Y-112350000D01*
X183025000Y-112500000D01*
X182775000Y-112500000D01*
X182775000Y-112350000D01*
X183550000Y-112350000D02*
X183800000Y-112350000D01*
X183800000Y-112500000D01*
X183550000Y-112500000D01*
X183550000Y-112350000D01*
X185050000Y-109300000D02*
X185750000Y-109300000D01*
X185750000Y-112700000D01*
X185050000Y-112700000D01*
X185050000Y-109300000D01*
G36*
X185050000Y-109300000D02*
G01*
X185750000Y-109300000D01*
X185750000Y-112700000D01*
X185050000Y-112700000D01*
X185050000Y-109300000D01*
G37*
X182275000Y-109300000D02*
X185725000Y-109300000D01*
X185725000Y-109950000D01*
X182275000Y-109950000D01*
X182275000Y-109300000D01*
G36*
X182275000Y-109300000D02*
G01*
X185725000Y-109300000D01*
X185725000Y-109950000D01*
X182275000Y-109950000D01*
X182275000Y-109300000D01*
G37*
X182773607Y-110926394D02*
G75*
G02*
X182326393Y-110926394I-223607J0D01*
G01*
X182326393Y-110926394D02*
G75*
G02*
X182773607Y-110926394I223607J0D01*
G01*
X182500000Y-111900000D02*
X182600000Y-111900000D01*
X182600000Y-112200000D01*
X182500000Y-112200000D01*
X182500000Y-111900000D01*
D11*
X180395489Y-111200828D02*
X180395489Y-112415114D01*
X180395489Y-112415114D02*
X180324060Y-112557971D01*
X180324060Y-112557971D02*
X180252632Y-112629400D01*
X180252632Y-112629400D02*
X180109774Y-112700828D01*
X180109774Y-112700828D02*
X179824060Y-112700828D01*
X179824060Y-112700828D02*
X179681203Y-112629400D01*
X179681203Y-112629400D02*
X179609774Y-112557971D01*
X179609774Y-112557971D02*
X179538346Y-112415114D01*
X179538346Y-112415114D02*
X179538346Y-111200828D01*
X178895488Y-112629400D02*
X178681203Y-112700828D01*
X178681203Y-112700828D02*
X178324060Y-112700828D01*
X178324060Y-112700828D02*
X178181203Y-112629400D01*
X178181203Y-112629400D02*
X178109774Y-112557971D01*
X178109774Y-112557971D02*
X178038345Y-112415114D01*
X178038345Y-112415114D02*
X178038345Y-112272257D01*
X178038345Y-112272257D02*
X178109774Y-112129400D01*
X178109774Y-112129400D02*
X178181203Y-112057971D01*
X178181203Y-112057971D02*
X178324060Y-111986542D01*
X178324060Y-111986542D02*
X178609774Y-111915114D01*
X178609774Y-111915114D02*
X178752631Y-111843685D01*
X178752631Y-111843685D02*
X178824060Y-111772257D01*
X178824060Y-111772257D02*
X178895488Y-111629400D01*
X178895488Y-111629400D02*
X178895488Y-111486542D01*
X178895488Y-111486542D02*
X178824060Y-111343685D01*
X178824060Y-111343685D02*
X178752631Y-111272257D01*
X178752631Y-111272257D02*
X178609774Y-111200828D01*
X178609774Y-111200828D02*
X178252631Y-111200828D01*
X178252631Y-111200828D02*
X178038345Y-111272257D01*
X176895489Y-111915114D02*
X176681203Y-111986542D01*
X176681203Y-111986542D02*
X176609774Y-112057971D01*
X176609774Y-112057971D02*
X176538346Y-112200828D01*
X176538346Y-112200828D02*
X176538346Y-112415114D01*
X176538346Y-112415114D02*
X176609774Y-112557971D01*
X176609774Y-112557971D02*
X176681203Y-112629400D01*
X176681203Y-112629400D02*
X176824060Y-112700828D01*
X176824060Y-112700828D02*
X177395489Y-112700828D01*
X177395489Y-112700828D02*
X177395489Y-111200828D01*
X177395489Y-111200828D02*
X176895489Y-111200828D01*
X176895489Y-111200828D02*
X176752632Y-111272257D01*
X176752632Y-111272257D02*
X176681203Y-111343685D01*
X176681203Y-111343685D02*
X176609774Y-111486542D01*
X176609774Y-111486542D02*
X176609774Y-111629400D01*
X176609774Y-111629400D02*
X176681203Y-111772257D01*
X176681203Y-111772257D02*
X176752632Y-111843685D01*
X176752632Y-111843685D02*
X176895489Y-111915114D01*
X176895489Y-111915114D02*
X177395489Y-111915114D01*
X175895489Y-112129400D02*
X174752632Y-112129400D01*
X174038346Y-112700828D02*
X174038346Y-111200828D01*
X174038346Y-111200828D02*
X173681203Y-111200828D01*
X173681203Y-111200828D02*
X173466917Y-111272257D01*
X173466917Y-111272257D02*
X173324060Y-111415114D01*
X173324060Y-111415114D02*
X173252631Y-111557971D01*
X173252631Y-111557971D02*
X173181203Y-111843685D01*
X173181203Y-111843685D02*
X173181203Y-112057971D01*
X173181203Y-112057971D02*
X173252631Y-112343685D01*
X173252631Y-112343685D02*
X173324060Y-112486542D01*
X173324060Y-112486542D02*
X173466917Y-112629400D01*
X173466917Y-112629400D02*
X173681203Y-112700828D01*
X173681203Y-112700828D02*
X174038346Y-112700828D01*
X172609774Y-112272257D02*
X171895489Y-112272257D01*
X172752631Y-112700828D02*
X172252631Y-111200828D01*
X172252631Y-111200828D02*
X171752631Y-112700828D01*
X170538346Y-112700828D02*
X171252632Y-112700828D01*
X171252632Y-112700828D02*
X171252632Y-111200828D01*
X170038346Y-112700828D02*
X170038346Y-111200828D01*
X168395488Y-111200828D02*
X167895488Y-112700828D01*
X167895488Y-112700828D02*
X167395488Y-111200828D01*
X166895489Y-112557971D02*
X166824060Y-112629400D01*
X166824060Y-112629400D02*
X166895489Y-112700828D01*
X166895489Y-112700828D02*
X166966917Y-112629400D01*
X166966917Y-112629400D02*
X166895489Y-112557971D01*
X166895489Y-112557971D02*
X166895489Y-112700828D01*
X166252631Y-111343685D02*
X166181203Y-111272257D01*
X166181203Y-111272257D02*
X166038346Y-111200828D01*
X166038346Y-111200828D02*
X165681203Y-111200828D01*
X165681203Y-111200828D02*
X165538346Y-111272257D01*
X165538346Y-111272257D02*
X165466917Y-111343685D01*
X165466917Y-111343685D02*
X165395488Y-111486542D01*
X165395488Y-111486542D02*
X165395488Y-111629400D01*
X165395488Y-111629400D02*
X165466917Y-111843685D01*
X165466917Y-111843685D02*
X166324060Y-112700828D01*
X166324060Y-112700828D02*
X165395488Y-112700828D01*
M02*
