%TF.GenerationSoftware,KiCad,Pcbnew,8.0.8*%
%TF.CreationDate,2025-03-23T20:37:34+01:00*%
%TF.ProjectId,USB-DALI,5553422d-4441-44c4-992e-6b696361645f,rev?*%
%TF.SameCoordinates,Original*%
%TF.FileFunction,Legend,Top*%
%TF.FilePolarity,Positive*%
%FSLAX46Y46*%
G04 Gerber Fmt 4.6, Leading zero omitted, Abs format (unit mm)*
G04 Created by KiCad (PCBNEW 8.0.8) date 2025-03-23 20:37:34*
%MOMM*%
%LPD*%
G01*
G04 APERTURE LIST*
%ADD10C,0.250000*%
%ADD11C,0.150000*%
%ADD12C,0.120000*%
G04 APERTURE END LIST*
D10*
X185251428Y-94955928D02*
X185251428Y-93455928D01*
X185251428Y-93455928D02*
X185608571Y-93455928D01*
X185608571Y-93455928D02*
X185822857Y-93527357D01*
X185822857Y-93527357D02*
X185965714Y-93670214D01*
X185965714Y-93670214D02*
X186037143Y-93813071D01*
X186037143Y-93813071D02*
X186108571Y-94098785D01*
X186108571Y-94098785D02*
X186108571Y-94313071D01*
X186108571Y-94313071D02*
X186037143Y-94598785D01*
X186037143Y-94598785D02*
X185965714Y-94741642D01*
X185965714Y-94741642D02*
X185822857Y-94884500D01*
X185822857Y-94884500D02*
X185608571Y-94955928D01*
X185608571Y-94955928D02*
X185251428Y-94955928D01*
X186680000Y-94527357D02*
X187394286Y-94527357D01*
X186537143Y-94955928D02*
X187037143Y-93455928D01*
X187037143Y-93455928D02*
X187537143Y-94955928D01*
X188751428Y-94955928D02*
X188037142Y-94955928D01*
X188037142Y-94955928D02*
X188037142Y-93455928D01*
X189251428Y-94955928D02*
X189251428Y-93455928D01*
X189965714Y-94384500D02*
X191108572Y-94384500D01*
X185251428Y-108805928D02*
X185251428Y-107305928D01*
X185251428Y-107305928D02*
X185608571Y-107305928D01*
X185608571Y-107305928D02*
X185822857Y-107377357D01*
X185822857Y-107377357D02*
X185965714Y-107520214D01*
X185965714Y-107520214D02*
X186037143Y-107663071D01*
X186037143Y-107663071D02*
X186108571Y-107948785D01*
X186108571Y-107948785D02*
X186108571Y-108163071D01*
X186108571Y-108163071D02*
X186037143Y-108448785D01*
X186037143Y-108448785D02*
X185965714Y-108591642D01*
X185965714Y-108591642D02*
X185822857Y-108734500D01*
X185822857Y-108734500D02*
X185608571Y-108805928D01*
X185608571Y-108805928D02*
X185251428Y-108805928D01*
X186680000Y-108377357D02*
X187394286Y-108377357D01*
X186537143Y-108805928D02*
X187037143Y-107305928D01*
X187037143Y-107305928D02*
X187537143Y-108805928D01*
X188751428Y-108805928D02*
X188037142Y-108805928D01*
X188037142Y-108805928D02*
X188037142Y-107305928D01*
X189251428Y-108805928D02*
X189251428Y-107305928D01*
X189965714Y-108234500D02*
X191108572Y-108234500D01*
X190537143Y-108805928D02*
X190537143Y-107663071D01*
D11*
X175496667Y-109179819D02*
X175496667Y-108179819D01*
X175496667Y-108179819D02*
X175877619Y-108179819D01*
X175877619Y-108179819D02*
X175972857Y-108227438D01*
X175972857Y-108227438D02*
X176020476Y-108275057D01*
X176020476Y-108275057D02*
X176068095Y-108370295D01*
X176068095Y-108370295D02*
X176068095Y-108513152D01*
X176068095Y-108513152D02*
X176020476Y-108608390D01*
X176020476Y-108608390D02*
X175972857Y-108656009D01*
X175972857Y-108656009D02*
X175877619Y-108703628D01*
X175877619Y-108703628D02*
X175496667Y-108703628D01*
X176401429Y-108179819D02*
X176639524Y-109179819D01*
X176639524Y-109179819D02*
X176830000Y-108465533D01*
X176830000Y-108465533D02*
X177020476Y-109179819D01*
X177020476Y-109179819D02*
X177258572Y-108179819D01*
X178210952Y-109179819D02*
X177877619Y-108703628D01*
X177639524Y-109179819D02*
X177639524Y-108179819D01*
X177639524Y-108179819D02*
X178020476Y-108179819D01*
X178020476Y-108179819D02*
X178115714Y-108227438D01*
X178115714Y-108227438D02*
X178163333Y-108275057D01*
X178163333Y-108275057D02*
X178210952Y-108370295D01*
X178210952Y-108370295D02*
X178210952Y-108513152D01*
X178210952Y-108513152D02*
X178163333Y-108608390D01*
X178163333Y-108608390D02*
X178115714Y-108656009D01*
X178115714Y-108656009D02*
X178020476Y-108703628D01*
X178020476Y-108703628D02*
X177639524Y-108703628D01*
X179734762Y-108656009D02*
X179877619Y-108703628D01*
X179877619Y-108703628D02*
X179925238Y-108751247D01*
X179925238Y-108751247D02*
X179972857Y-108846485D01*
X179972857Y-108846485D02*
X179972857Y-108989342D01*
X179972857Y-108989342D02*
X179925238Y-109084580D01*
X179925238Y-109084580D02*
X179877619Y-109132200D01*
X179877619Y-109132200D02*
X179782381Y-109179819D01*
X179782381Y-109179819D02*
X179401429Y-109179819D01*
X179401429Y-109179819D02*
X179401429Y-108179819D01*
X179401429Y-108179819D02*
X179734762Y-108179819D01*
X179734762Y-108179819D02*
X179830000Y-108227438D01*
X179830000Y-108227438D02*
X179877619Y-108275057D01*
X179877619Y-108275057D02*
X179925238Y-108370295D01*
X179925238Y-108370295D02*
X179925238Y-108465533D01*
X179925238Y-108465533D02*
X179877619Y-108560771D01*
X179877619Y-108560771D02*
X179830000Y-108608390D01*
X179830000Y-108608390D02*
X179734762Y-108656009D01*
X179734762Y-108656009D02*
X179401429Y-108656009D01*
X180401429Y-108179819D02*
X180401429Y-108989342D01*
X180401429Y-108989342D02*
X180449048Y-109084580D01*
X180449048Y-109084580D02*
X180496667Y-109132200D01*
X180496667Y-109132200D02*
X180591905Y-109179819D01*
X180591905Y-109179819D02*
X180782381Y-109179819D01*
X180782381Y-109179819D02*
X180877619Y-109132200D01*
X180877619Y-109132200D02*
X180925238Y-109084580D01*
X180925238Y-109084580D02*
X180972857Y-108989342D01*
X180972857Y-108989342D02*
X180972857Y-108179819D01*
X181401429Y-109132200D02*
X181544286Y-109179819D01*
X181544286Y-109179819D02*
X181782381Y-109179819D01*
X181782381Y-109179819D02*
X181877619Y-109132200D01*
X181877619Y-109132200D02*
X181925238Y-109084580D01*
X181925238Y-109084580D02*
X181972857Y-108989342D01*
X181972857Y-108989342D02*
X181972857Y-108894104D01*
X181972857Y-108894104D02*
X181925238Y-108798866D01*
X181925238Y-108798866D02*
X181877619Y-108751247D01*
X181877619Y-108751247D02*
X181782381Y-108703628D01*
X181782381Y-108703628D02*
X181591905Y-108656009D01*
X181591905Y-108656009D02*
X181496667Y-108608390D01*
X181496667Y-108608390D02*
X181449048Y-108560771D01*
X181449048Y-108560771D02*
X181401429Y-108465533D01*
X181401429Y-108465533D02*
X181401429Y-108370295D01*
X181401429Y-108370295D02*
X181449048Y-108275057D01*
X181449048Y-108275057D02*
X181496667Y-108227438D01*
X181496667Y-108227438D02*
X181591905Y-108179819D01*
X181591905Y-108179819D02*
X181830000Y-108179819D01*
X181830000Y-108179819D02*
X181972857Y-108227438D01*
X182401429Y-108798866D02*
X183163334Y-108798866D01*
X182782381Y-109179819D02*
X182782381Y-108417914D01*
X161709524Y-111554819D02*
X162280952Y-111554819D01*
X161995238Y-112554819D02*
X161995238Y-111554819D01*
X162519048Y-112554819D02*
X163042857Y-111888152D01*
X162519048Y-111888152D02*
X163042857Y-112554819D01*
X148784761Y-112579819D02*
X148451428Y-112103628D01*
X148213333Y-112579819D02*
X148213333Y-111579819D01*
X148213333Y-111579819D02*
X148594285Y-111579819D01*
X148594285Y-111579819D02*
X148689523Y-111627438D01*
X148689523Y-111627438D02*
X148737142Y-111675057D01*
X148737142Y-111675057D02*
X148784761Y-111770295D01*
X148784761Y-111770295D02*
X148784761Y-111913152D01*
X148784761Y-111913152D02*
X148737142Y-112008390D01*
X148737142Y-112008390D02*
X148689523Y-112056009D01*
X148689523Y-112056009D02*
X148594285Y-112103628D01*
X148594285Y-112103628D02*
X148213333Y-112103628D01*
X149118095Y-112579819D02*
X149641904Y-111913152D01*
X149118095Y-111913152D02*
X149641904Y-112579819D01*
X156446667Y-112579819D02*
X156446667Y-111579819D01*
X156446667Y-111579819D02*
X156827619Y-111579819D01*
X156827619Y-111579819D02*
X156922857Y-111627438D01*
X156922857Y-111627438D02*
X156970476Y-111675057D01*
X156970476Y-111675057D02*
X157018095Y-111770295D01*
X157018095Y-111770295D02*
X157018095Y-111913152D01*
X157018095Y-111913152D02*
X156970476Y-112008390D01*
X156970476Y-112008390D02*
X156922857Y-112056009D01*
X156922857Y-112056009D02*
X156827619Y-112103628D01*
X156827619Y-112103628D02*
X156446667Y-112103628D01*
X157351429Y-111579819D02*
X157589524Y-112579819D01*
X157589524Y-112579819D02*
X157780000Y-111865533D01*
X157780000Y-111865533D02*
X157970476Y-112579819D01*
X157970476Y-112579819D02*
X158208572Y-111579819D01*
X159160952Y-112579819D02*
X158827619Y-112103628D01*
X158589524Y-112579819D02*
X158589524Y-111579819D01*
X158589524Y-111579819D02*
X158970476Y-111579819D01*
X158970476Y-111579819D02*
X159065714Y-111627438D01*
X159065714Y-111627438D02*
X159113333Y-111675057D01*
X159113333Y-111675057D02*
X159160952Y-111770295D01*
X159160952Y-111770295D02*
X159160952Y-111913152D01*
X159160952Y-111913152D02*
X159113333Y-112008390D01*
X159113333Y-112008390D02*
X159065714Y-112056009D01*
X159065714Y-112056009D02*
X158970476Y-112103628D01*
X158970476Y-112103628D02*
X158589524Y-112103628D01*
X175471667Y-94479819D02*
X175471667Y-93479819D01*
X175471667Y-93479819D02*
X175852619Y-93479819D01*
X175852619Y-93479819D02*
X175947857Y-93527438D01*
X175947857Y-93527438D02*
X175995476Y-93575057D01*
X175995476Y-93575057D02*
X176043095Y-93670295D01*
X176043095Y-93670295D02*
X176043095Y-93813152D01*
X176043095Y-93813152D02*
X175995476Y-93908390D01*
X175995476Y-93908390D02*
X175947857Y-93956009D01*
X175947857Y-93956009D02*
X175852619Y-94003628D01*
X175852619Y-94003628D02*
X175471667Y-94003628D01*
X176376429Y-93479819D02*
X176614524Y-94479819D01*
X176614524Y-94479819D02*
X176805000Y-93765533D01*
X176805000Y-93765533D02*
X176995476Y-94479819D01*
X176995476Y-94479819D02*
X177233572Y-93479819D01*
X178185952Y-94479819D02*
X177852619Y-94003628D01*
X177614524Y-94479819D02*
X177614524Y-93479819D01*
X177614524Y-93479819D02*
X177995476Y-93479819D01*
X177995476Y-93479819D02*
X178090714Y-93527438D01*
X178090714Y-93527438D02*
X178138333Y-93575057D01*
X178138333Y-93575057D02*
X178185952Y-93670295D01*
X178185952Y-93670295D02*
X178185952Y-93813152D01*
X178185952Y-93813152D02*
X178138333Y-93908390D01*
X178138333Y-93908390D02*
X178090714Y-93956009D01*
X178090714Y-93956009D02*
X177995476Y-94003628D01*
X177995476Y-94003628D02*
X177614524Y-94003628D01*
X179709762Y-93956009D02*
X179852619Y-94003628D01*
X179852619Y-94003628D02*
X179900238Y-94051247D01*
X179900238Y-94051247D02*
X179947857Y-94146485D01*
X179947857Y-94146485D02*
X179947857Y-94289342D01*
X179947857Y-94289342D02*
X179900238Y-94384580D01*
X179900238Y-94384580D02*
X179852619Y-94432200D01*
X179852619Y-94432200D02*
X179757381Y-94479819D01*
X179757381Y-94479819D02*
X179376429Y-94479819D01*
X179376429Y-94479819D02*
X179376429Y-93479819D01*
X179376429Y-93479819D02*
X179709762Y-93479819D01*
X179709762Y-93479819D02*
X179805000Y-93527438D01*
X179805000Y-93527438D02*
X179852619Y-93575057D01*
X179852619Y-93575057D02*
X179900238Y-93670295D01*
X179900238Y-93670295D02*
X179900238Y-93765533D01*
X179900238Y-93765533D02*
X179852619Y-93860771D01*
X179852619Y-93860771D02*
X179805000Y-93908390D01*
X179805000Y-93908390D02*
X179709762Y-93956009D01*
X179709762Y-93956009D02*
X179376429Y-93956009D01*
X180376429Y-93479819D02*
X180376429Y-94289342D01*
X180376429Y-94289342D02*
X180424048Y-94384580D01*
X180424048Y-94384580D02*
X180471667Y-94432200D01*
X180471667Y-94432200D02*
X180566905Y-94479819D01*
X180566905Y-94479819D02*
X180757381Y-94479819D01*
X180757381Y-94479819D02*
X180852619Y-94432200D01*
X180852619Y-94432200D02*
X180900238Y-94384580D01*
X180900238Y-94384580D02*
X180947857Y-94289342D01*
X180947857Y-94289342D02*
X180947857Y-93479819D01*
X181376429Y-94432200D02*
X181519286Y-94479819D01*
X181519286Y-94479819D02*
X181757381Y-94479819D01*
X181757381Y-94479819D02*
X181852619Y-94432200D01*
X181852619Y-94432200D02*
X181900238Y-94384580D01*
X181900238Y-94384580D02*
X181947857Y-94289342D01*
X181947857Y-94289342D02*
X181947857Y-94194104D01*
X181947857Y-94194104D02*
X181900238Y-94098866D01*
X181900238Y-94098866D02*
X181852619Y-94051247D01*
X181852619Y-94051247D02*
X181757381Y-94003628D01*
X181757381Y-94003628D02*
X181566905Y-93956009D01*
X181566905Y-93956009D02*
X181471667Y-93908390D01*
X181471667Y-93908390D02*
X181424048Y-93860771D01*
X181424048Y-93860771D02*
X181376429Y-93765533D01*
X181376429Y-93765533D02*
X181376429Y-93670295D01*
X181376429Y-93670295D02*
X181424048Y-93575057D01*
X181424048Y-93575057D02*
X181471667Y-93527438D01*
X181471667Y-93527438D02*
X181566905Y-93479819D01*
X181566905Y-93479819D02*
X181805000Y-93479819D01*
X181805000Y-93479819D02*
X181947857Y-93527438D01*
X182376429Y-94098866D02*
X183138334Y-94098866D01*
X134127619Y-112432200D02*
X134270476Y-112479819D01*
X134270476Y-112479819D02*
X134508571Y-112479819D01*
X134508571Y-112479819D02*
X134603809Y-112432200D01*
X134603809Y-112432200D02*
X134651428Y-112384580D01*
X134651428Y-112384580D02*
X134699047Y-112289342D01*
X134699047Y-112289342D02*
X134699047Y-112194104D01*
X134699047Y-112194104D02*
X134651428Y-112098866D01*
X134651428Y-112098866D02*
X134603809Y-112051247D01*
X134603809Y-112051247D02*
X134508571Y-112003628D01*
X134508571Y-112003628D02*
X134318095Y-111956009D01*
X134318095Y-111956009D02*
X134222857Y-111908390D01*
X134222857Y-111908390D02*
X134175238Y-111860771D01*
X134175238Y-111860771D02*
X134127619Y-111765533D01*
X134127619Y-111765533D02*
X134127619Y-111670295D01*
X134127619Y-111670295D02*
X134175238Y-111575057D01*
X134175238Y-111575057D02*
X134222857Y-111527438D01*
X134222857Y-111527438D02*
X134318095Y-111479819D01*
X134318095Y-111479819D02*
X134556190Y-111479819D01*
X134556190Y-111479819D02*
X134699047Y-111527438D01*
X134984762Y-111479819D02*
X135556190Y-111479819D01*
X135270476Y-112479819D02*
X135270476Y-111479819D01*
X135889524Y-112098866D02*
X136651429Y-112098866D01*
X137603809Y-112479819D02*
X137127619Y-112479819D01*
X137127619Y-112479819D02*
X137127619Y-111479819D01*
X137937143Y-112479819D02*
X137937143Y-111479819D01*
X138413333Y-112479819D02*
X138413333Y-111479819D01*
X138413333Y-111479819D02*
X138984761Y-112479819D01*
X138984761Y-112479819D02*
X138984761Y-111479819D01*
X139460952Y-112479819D02*
X139460952Y-111479819D01*
X140032380Y-112479819D02*
X139603809Y-111908390D01*
X140032380Y-111479819D02*
X139460952Y-112051247D01*
D12*
%TO.C,U5*%
X151880000Y-89465000D02*
X151080000Y-89465000D01*
X151880000Y-89465000D02*
X152680000Y-89465000D01*
X151880000Y-92585000D02*
X151080000Y-92585000D01*
X151880000Y-92585000D02*
X152680000Y-92585000D01*
X153420000Y-92865000D02*
X152940000Y-92865000D01*
X153180000Y-92535000D01*
X153420000Y-92865000D01*
G36*
X153420000Y-92865000D02*
G01*
X152940000Y-92865000D01*
X153180000Y-92535000D01*
X153420000Y-92865000D01*
G37*
%TO.C,C8*%
X127641252Y-108790000D02*
X127118748Y-108790000D01*
X127641252Y-110260000D02*
X127118748Y-110260000D01*
%TO.C,J4*%
X176475000Y-104695000D02*
X176475000Y-107355000D01*
X179075000Y-104695000D02*
X176475000Y-104695000D01*
X179075000Y-104695000D02*
X179075000Y-107355000D01*
X179075000Y-107355000D02*
X176475000Y-107355000D01*
X180345000Y-104695000D02*
X181675000Y-104695000D01*
X181675000Y-104695000D02*
X181675000Y-106025000D01*
%TO.C,C2*%
X145141252Y-105290000D02*
X144618748Y-105290000D01*
X145141252Y-106760000D02*
X144618748Y-106760000D01*
%TO.C,Q1*%
X169520000Y-109835000D02*
X169520000Y-107115000D01*
X170500000Y-109835000D02*
X169520000Y-109835000D01*
X173260000Y-109835000D02*
X174240000Y-109835000D01*
X174240000Y-107255000D02*
X174240000Y-109835000D01*
X174420000Y-106945000D02*
X174090000Y-106705000D01*
X174420000Y-106465000D01*
X174420000Y-106945000D01*
G36*
X174420000Y-106945000D02*
G01*
X174090000Y-106705000D01*
X174420000Y-106465000D01*
X174420000Y-106945000D01*
G37*
%TO.C,C9*%
X145141252Y-108290000D02*
X144618748Y-108290000D01*
X145141252Y-109760000D02*
X144618748Y-109760000D01*
%TO.C,D5*%
X162390000Y-89375000D02*
X156880000Y-89375000D01*
X162390000Y-92675000D02*
X156880000Y-92675000D01*
X162390000Y-92675000D02*
X162390000Y-89375000D01*
%TO.C,R1*%
X167107064Y-109290000D02*
X166652936Y-109290000D01*
X167107064Y-110760000D02*
X166652936Y-110760000D01*
%TO.C,R5*%
X148740436Y-106790000D02*
X149194564Y-106790000D01*
X148740436Y-108260000D02*
X149194564Y-108260000D01*
%TO.C,R9*%
X153152936Y-109290000D02*
X153607064Y-109290000D01*
X153152936Y-110760000D02*
X153607064Y-110760000D01*
%TO.C,C1*%
X147145000Y-103813748D02*
X147145000Y-104336252D01*
X148615000Y-103813748D02*
X148615000Y-104336252D01*
%TO.C,C3*%
X153691252Y-106790000D02*
X153168748Y-106790000D01*
X153691252Y-108260000D02*
X153168748Y-108260000D01*
%TO.C,C5*%
X138118748Y-92290000D02*
X138641252Y-92290000D01*
X138118748Y-93760000D02*
X138641252Y-93760000D01*
%TO.C,R2*%
X156145000Y-99839564D02*
X156145000Y-99385436D01*
X157615000Y-99839564D02*
X157615000Y-99385436D01*
%TO.C,D1*%
X160695000Y-109065000D02*
X160695000Y-110985000D01*
X160695000Y-110985000D02*
X163380000Y-110985000D01*
X163380000Y-109065000D02*
X160695000Y-109065000D01*
%TO.C,D4*%
X176680000Y-98755000D02*
X181080000Y-98755000D01*
X176680000Y-99555000D02*
X176680000Y-98755000D01*
X176680000Y-102055000D02*
X176680000Y-100455000D01*
X176680000Y-102955000D02*
X176680000Y-103755000D01*
X176680000Y-103755000D02*
X181080000Y-103755000D01*
X181080000Y-98755000D02*
X181080000Y-99555000D01*
X181080000Y-102055000D02*
X181080000Y-100455000D01*
X181080000Y-103755000D02*
X181080000Y-103255000D01*
X182020000Y-103585000D02*
X181540000Y-103585000D01*
X181780000Y-103255000D01*
X182020000Y-103585000D01*
G36*
X182020000Y-103585000D02*
G01*
X181540000Y-103585000D01*
X181780000Y-103255000D01*
X182020000Y-103585000D01*
G37*
%TO.C,R15*%
X173740436Y-89315000D02*
X178094564Y-89315000D01*
X173740436Y-92735000D02*
X178094564Y-92735000D01*
%TO.C,U1*%
X137270000Y-95915000D02*
X137270000Y-96365000D01*
X137270000Y-103135000D02*
X137270000Y-102685000D01*
X137720000Y-95915000D02*
X137270000Y-95915000D01*
X137720000Y-103135000D02*
X137270000Y-103135000D01*
X144040000Y-95915000D02*
X144490000Y-95915000D01*
X144040000Y-103135000D02*
X144490000Y-103135000D01*
X144490000Y-95915000D02*
X144490000Y-96365000D01*
X144490000Y-103135000D02*
X144490000Y-102685000D01*
X145420000Y-103155000D02*
X144740000Y-103155000D01*
X145080000Y-102685000D01*
X145420000Y-103155000D01*
G36*
X145420000Y-103155000D02*
G01*
X144740000Y-103155000D01*
X145080000Y-102685000D01*
X145420000Y-103155000D01*
G37*
%TO.C,R7*%
X130240436Y-99290000D02*
X130694564Y-99290000D01*
X130240436Y-100760000D02*
X130694564Y-100760000D01*
%TO.C,D3*%
X147257500Y-109065000D02*
X147257500Y-110985000D01*
X147257500Y-110985000D02*
X149942500Y-110985000D01*
X149942500Y-109065000D02*
X147257500Y-109065000D01*
%TO.C,C4*%
X135591252Y-103790000D02*
X135068748Y-103790000D01*
X135591252Y-105260000D02*
X135068748Y-105260000D01*
%TO.C,R4*%
X156145000Y-104210436D02*
X156145000Y-104664564D01*
X157615000Y-104210436D02*
X157615000Y-104664564D01*
%TO.C,U3*%
X160720000Y-96430000D02*
X160720000Y-101630000D01*
X160720000Y-101630000D02*
X162370000Y-101630000D01*
X164370000Y-101630000D02*
X166020000Y-101630000D01*
X166020000Y-96430000D02*
X160720000Y-96430000D01*
X166020000Y-101630000D02*
X166020000Y-96430000D01*
X162370000Y-101630000D02*
G75*
G02*
X164370000Y-101630000I1000000J0D01*
G01*
%TO.C,R8*%
X130240436Y-101290000D02*
X130694564Y-101290000D01*
X130240436Y-102760000D02*
X130694564Y-102760000D01*
%TO.C,R12*%
X170240436Y-96290000D02*
X170694564Y-96290000D01*
X170240436Y-97760000D02*
X170694564Y-97760000D01*
%TO.C,C7*%
X130118748Y-103790000D02*
X130641252Y-103790000D01*
X130118748Y-105260000D02*
X130641252Y-105260000D01*
%TO.C,Y1*%
X149855000Y-103160000D02*
X149855000Y-96910000D01*
X154905000Y-103160000D02*
X154905000Y-96910000D01*
X149855000Y-96910000D02*
G75*
G02*
X154905000Y-96910000I2525000J0D01*
G01*
X154905000Y-103160000D02*
G75*
G02*
X149855000Y-103160000I-2525000J0D01*
G01*
%TO.C,D2*%
X156880000Y-110985000D02*
X159565000Y-110985000D01*
X159565000Y-109065000D02*
X156880000Y-109065000D01*
X159565000Y-110985000D02*
X159565000Y-109065000D01*
%TO.C,R13*%
X159652936Y-93790000D02*
X160107064Y-93790000D01*
X159652936Y-95260000D02*
X160107064Y-95260000D01*
%TO.C,R10*%
X170694564Y-98790000D02*
X170240436Y-98790000D01*
X170694564Y-100260000D02*
X170240436Y-100260000D01*
%TO.C,D6*%
X170890000Y-89375000D02*
X165380000Y-89375000D01*
X170890000Y-92675000D02*
X165380000Y-92675000D01*
X170890000Y-92675000D02*
X170890000Y-89375000D01*
%TO.C,R3*%
X163607064Y-93790000D02*
X163152936Y-93790000D01*
X163607064Y-95260000D02*
X163152936Y-95260000D01*
%TO.C,J1*%
X121730000Y-94880000D02*
X120680000Y-94880000D01*
X121730000Y-107170000D02*
X120680000Y-107170000D01*
X124900000Y-105425000D02*
X124900000Y-96625000D01*
X124900000Y-105425000D02*
X125655000Y-105425000D01*
%TO.C,U4*%
X129530000Y-89115000D02*
X133290000Y-89115000D01*
X129530000Y-95935000D02*
X133290000Y-95935000D01*
X133290000Y-89115000D02*
X133290000Y-90375000D01*
X133290000Y-95935000D02*
X133290000Y-94675000D01*
X128250000Y-89215000D02*
X128010000Y-88885000D01*
X128490000Y-88885000D01*
X128250000Y-89215000D01*
G36*
X128250000Y-89215000D02*
G01*
X128010000Y-88885000D01*
X128490000Y-88885000D01*
X128250000Y-89215000D01*
G37*
%TO.C,C6*%
X147145000Y-97763748D02*
X147145000Y-98286252D01*
X148615000Y-97763748D02*
X148615000Y-98286252D01*
%TO.C,R6*%
X130240436Y-97290000D02*
X130694564Y-97290000D01*
X130240436Y-98760000D02*
X130694564Y-98760000D01*
%TO.C,L1*%
X142020000Y-90922936D02*
X142020000Y-92127064D01*
X144740000Y-90922936D02*
X144740000Y-92127064D01*
%TO.C,U2*%
X160740000Y-102420000D02*
X160740000Y-107620000D01*
X160740000Y-107620000D02*
X166040000Y-107620000D01*
X162390000Y-102420000D02*
X160740000Y-102420000D01*
X166040000Y-102420000D02*
X164390000Y-102420000D01*
X166040000Y-107620000D02*
X166040000Y-102420000D01*
X164390000Y-102420000D02*
G75*
G02*
X162390000Y-102420000I-1000000J0D01*
G01*
%TO.C,J5*%
X176435000Y-95195000D02*
X176435000Y-97855000D01*
X179035000Y-95195000D02*
X176435000Y-95195000D01*
X179035000Y-95195000D02*
X179035000Y-97855000D01*
X179035000Y-97855000D02*
X176435000Y-97855000D01*
X180305000Y-95195000D02*
X181635000Y-95195000D01*
X181635000Y-95195000D02*
X181635000Y-96525000D01*
%TO.C,J3*%
X183600000Y-95640000D02*
X183600000Y-96140000D01*
X183840000Y-95880000D02*
X183840000Y-106160000D01*
X184340000Y-95640000D02*
X183600000Y-95640000D01*
X184400000Y-95880000D02*
X184400000Y-106160000D01*
X185900000Y-95880000D02*
X185900000Y-106160000D01*
X187261000Y-102526000D02*
X187226000Y-102491000D01*
X187477000Y-102333000D02*
X187431000Y-102286000D01*
X189569000Y-104835000D02*
X189523000Y-104788000D01*
X189775000Y-104630000D02*
X189739000Y-104595000D01*
X190801000Y-95880000D02*
X190801000Y-106160000D01*
X193761000Y-95880000D02*
X183840000Y-95880000D01*
X193761000Y-95880000D02*
X193761000Y-106160000D01*
X193761000Y-106160000D02*
X183840000Y-106160000D01*
X186819747Y-98508805D02*
G75*
G02*
X186965000Y-97796000I1680254J28806D01*
G01*
X186965244Y-99163318D02*
G75*
G02*
X186820000Y-98480000I1534756J683318D01*
G01*
X187816958Y-96944573D02*
G75*
G02*
X189184000Y-96945000I683041J-1535420D01*
G01*
X189183042Y-100015427D02*
G75*
G02*
X187816000Y-100015000I-683042J1535427D01*
G01*
X190035427Y-97796958D02*
G75*
G02*
X190035000Y-99164000I-1535420J-683041D01*
G01*
X190180000Y-103560000D02*
G75*
G02*
X186820000Y-103560000I-1680000J0D01*
G01*
X186820000Y-103560000D02*
G75*
G02*
X190180000Y-103560000I1680000J0D01*
G01*
%TO.C,R11*%
X170694564Y-101290000D02*
X170240436Y-101290000D01*
X170694564Y-102760000D02*
X170240436Y-102760000D01*
%TO.C,J2*%
X131970000Y-107695000D02*
X131970000Y-110355000D01*
X139650000Y-107695000D02*
X131970000Y-107695000D01*
X139650000Y-107695000D02*
X139650000Y-110355000D01*
X139650000Y-110355000D02*
X131970000Y-110355000D01*
X140920000Y-107695000D02*
X142250000Y-107695000D01*
X142250000Y-107695000D02*
X142250000Y-109025000D01*
%TO.C,R14*%
X156145000Y-95752064D02*
X156145000Y-95297936D01*
X157615000Y-95752064D02*
X157615000Y-95297936D01*
%TD*%
M02*
