%TF.GenerationSoftware,KiCad,Pcbnew,8.0.8*%
%TF.CreationDate,2025-03-23T20:37:34+01:00*%
%TF.ProjectId,USB-DALI,5553422d-4441-44c4-992e-6b696361645f,rev?*%
%TF.SameCoordinates,Original*%
%TF.FileFunction,Copper,L2,Bot*%
%TF.FilePolarity,Positive*%
%FSLAX46Y46*%
G04 Gerber Fmt 4.6, Leading zero omitted, Abs format (unit mm)*
G04 Created by KiCad (PCBNEW 8.0.8) date 2025-03-23 20:37:34*
%MOMM*%
%LPD*%
G01*
G04 APERTURE LIST*
%TA.AperFunction,ComponentPad*%
%ADD10R,1.700000X1.700000*%
%TD*%
%TA.AperFunction,ComponentPad*%
%ADD11O,1.700000X1.700000*%
%TD*%
%TA.AperFunction,ComponentPad*%
%ADD12R,1.600000X1.600000*%
%TD*%
%TA.AperFunction,ComponentPad*%
%ADD13O,1.600000X1.600000*%
%TD*%
%TA.AperFunction,ComponentPad*%
%ADD14C,1.500000*%
%TD*%
%TA.AperFunction,HeatsinkPad*%
%ADD15O,3.500000X1.900000*%
%TD*%
%TA.AperFunction,ComponentPad*%
%ADD16R,2.600000X2.600000*%
%TD*%
%TA.AperFunction,ComponentPad*%
%ADD17C,2.600000*%
%TD*%
%TA.AperFunction,ViaPad*%
%ADD18C,0.600000*%
%TD*%
%TA.AperFunction,Conductor*%
%ADD19C,0.200000*%
%TD*%
G04 APERTURE END LIST*
D10*
%TO.P,J4,1,Pin_1*%
%TO.N,/DALI+*%
X180345000Y-106025000D03*
D11*
%TO.P,J4,2,Pin_2*%
%TO.N,Net-(J4-Pin_2)*%
X177805000Y-106025000D03*
%TD*%
D12*
%TO.P,U3,1*%
%TO.N,Net-(D4-+)*%
X167180000Y-100300000D03*
D13*
%TO.P,U3,2*%
%TO.N,Net-(R12-Pad1)*%
X167180000Y-97760000D03*
%TO.P,U3,3*%
%TO.N,GND*%
X159560000Y-97760000D03*
%TO.P,U3,4*%
%TO.N,Net-(U1-PA3)*%
X159560000Y-100300000D03*
%TD*%
D14*
%TO.P,Y1,1,1*%
%TO.N,Net-(U1-PD0)*%
X152380000Y-102475000D03*
%TO.P,Y1,2,2*%
%TO.N,Net-(U1-PD1)*%
X152380000Y-97595000D03*
%TD*%
D15*
%TO.P,J1,5,Shield*%
%TO.N,GND*%
X123780000Y-106725000D03*
X123780000Y-95325000D03*
%TD*%
D12*
%TO.P,U2,1*%
%TO.N,Net-(R4-Pad1)*%
X159580000Y-103750000D03*
D13*
%TO.P,U2,2*%
%TO.N,GND*%
X159580000Y-106290000D03*
%TO.P,U2,3*%
%TO.N,Net-(R10-Pad2)*%
X167200000Y-106290000D03*
%TO.P,U2,4*%
%TO.N,Net-(D4-+)*%
X167200000Y-103750000D03*
%TD*%
D10*
%TO.P,J5,1,Pin_1*%
%TO.N,/DALI-*%
X180305000Y-96525000D03*
D11*
%TO.P,J5,2,Pin_2*%
%TO.N,GND*%
X177765000Y-96525000D03*
%TD*%
D16*
%TO.P,J3,1,Pin_1*%
%TO.N,/DALI-*%
X188500000Y-98480000D03*
D17*
%TO.P,J3,2,Pin_2*%
%TO.N,/DALI+*%
X188500000Y-103560000D03*
%TD*%
D10*
%TO.P,J2,1,Pin_1*%
%TO.N,GND*%
X140920000Y-109025000D03*
D11*
%TO.P,J2,2,Pin_2*%
%TO.N,Net-(J2-Pin_2)*%
X138380000Y-109025000D03*
%TO.P,J2,3,Pin_3*%
%TO.N,Net-(J2-Pin_3)*%
X135840000Y-109025000D03*
%TO.P,J2,4,Pin_4*%
%TO.N,+3.3V*%
X133300000Y-109025000D03*
%TD*%
D18*
%TO.N,GND*%
X154100000Y-91025000D03*
X142880000Y-106025000D03*
X137950000Y-101635000D03*
X132380000Y-104525000D03*
X126875000Y-90225000D03*
X138924290Y-96585249D03*
X160150000Y-110025000D03*
X143100000Y-109025000D03*
X134380000Y-105525000D03*
X143850000Y-98915001D03*
X151600000Y-107525000D03*
X142400000Y-102200000D03*
X155850000Y-96450000D03*
X149000000Y-98975000D03*
X149050000Y-105000000D03*
X125380000Y-109525000D03*
%TD*%
D19*
%TO.N,Net-(D4-+)*%
X167200000Y-100320000D02*
X167180000Y-100300000D01*
X167300000Y-99905000D02*
X167300000Y-100065000D01*
%TD*%
%TA.AperFunction,Conductor*%
%TO.N,GND*%
G36*
X185832443Y-88825596D02*
G01*
X186264482Y-88842570D01*
X186274152Y-88843331D01*
X186701122Y-88893867D01*
X186710726Y-88895388D01*
X187132419Y-88979268D01*
X187141850Y-88981532D01*
X187555652Y-89098236D01*
X187564886Y-89101236D01*
X187968266Y-89250051D01*
X187977262Y-89253777D01*
X188367706Y-89433774D01*
X188376369Y-89438189D01*
X188751484Y-89648264D01*
X188759786Y-89653351D01*
X189117253Y-89892202D01*
X189125130Y-89897925D01*
X189462759Y-90164092D01*
X189470162Y-90170415D01*
X189628014Y-90316331D01*
X189785872Y-90462254D01*
X189792751Y-90469133D01*
X190084584Y-90784837D01*
X190090907Y-90792240D01*
X190357074Y-91129869D01*
X190362797Y-91137746D01*
X190601648Y-91495213D01*
X190606735Y-91503515D01*
X190816810Y-91878630D01*
X190821231Y-91887305D01*
X191001222Y-92277738D01*
X191004948Y-92286733D01*
X191153759Y-92690100D01*
X191156767Y-92699361D01*
X191273462Y-93113132D01*
X191275735Y-93122599D01*
X191359610Y-93544267D01*
X191361133Y-93553883D01*
X191411666Y-93980828D01*
X191412430Y-93990535D01*
X191429404Y-94422556D01*
X191429500Y-94427424D01*
X191429500Y-107622575D01*
X191429404Y-107627443D01*
X191412430Y-108059464D01*
X191411666Y-108069171D01*
X191361133Y-108496116D01*
X191359610Y-108505732D01*
X191275735Y-108927400D01*
X191273462Y-108936867D01*
X191156767Y-109350638D01*
X191153759Y-109359899D01*
X191004948Y-109763266D01*
X191001222Y-109772261D01*
X190821231Y-110162694D01*
X190816810Y-110171369D01*
X190606735Y-110546484D01*
X190601648Y-110554786D01*
X190362797Y-110912253D01*
X190357074Y-110920130D01*
X190090907Y-111257759D01*
X190084584Y-111265162D01*
X189792751Y-111580866D01*
X189785866Y-111587751D01*
X189470162Y-111879584D01*
X189462759Y-111885907D01*
X189125130Y-112152074D01*
X189117253Y-112157797D01*
X188759786Y-112396648D01*
X188751484Y-112401735D01*
X188376369Y-112611810D01*
X188367694Y-112616231D01*
X187977261Y-112796222D01*
X187968266Y-112799948D01*
X187564899Y-112948759D01*
X187555638Y-112951767D01*
X187141867Y-113068462D01*
X187132400Y-113070735D01*
X186710732Y-113154610D01*
X186701116Y-113156133D01*
X186274171Y-113206666D01*
X186264464Y-113207430D01*
X185832443Y-113224404D01*
X185827575Y-113224500D01*
X126732425Y-113224500D01*
X126727557Y-113224404D01*
X126295535Y-113207430D01*
X126285828Y-113206666D01*
X125858883Y-113156133D01*
X125849267Y-113154610D01*
X125427599Y-113070735D01*
X125418132Y-113068462D01*
X125004361Y-112951767D01*
X124995100Y-112948759D01*
X124591733Y-112799948D01*
X124582738Y-112796222D01*
X124192305Y-112616231D01*
X124183630Y-112611810D01*
X123808515Y-112401735D01*
X123800213Y-112396648D01*
X123442746Y-112157797D01*
X123434869Y-112152074D01*
X123097240Y-111885907D01*
X123089837Y-111879584D01*
X122774133Y-111587751D01*
X122767254Y-111580872D01*
X122621331Y-111423014D01*
X122475415Y-111265162D01*
X122469092Y-111257759D01*
X122202925Y-110920130D01*
X122197202Y-110912253D01*
X121958351Y-110554786D01*
X121953264Y-110546484D01*
X121743189Y-110171369D01*
X121738774Y-110162706D01*
X121558777Y-109772261D01*
X121555051Y-109763266D01*
X121528592Y-109691546D01*
X121406236Y-109359886D01*
X121403236Y-109350652D01*
X121311393Y-109024999D01*
X131944341Y-109024999D01*
X131944341Y-109025000D01*
X131964936Y-109260403D01*
X131964938Y-109260413D01*
X132026094Y-109488655D01*
X132026096Y-109488659D01*
X132026097Y-109488663D01*
X132106004Y-109660023D01*
X132125965Y-109702830D01*
X132125967Y-109702834D01*
X132234281Y-109857521D01*
X132261505Y-109896401D01*
X132428599Y-110063495D01*
X132505135Y-110117086D01*
X132622165Y-110199032D01*
X132622167Y-110199033D01*
X132622170Y-110199035D01*
X132836337Y-110298903D01*
X133064592Y-110360063D01*
X133235319Y-110375000D01*
X133299999Y-110380659D01*
X133300000Y-110380659D01*
X133300001Y-110380659D01*
X133364681Y-110375000D01*
X133535408Y-110360063D01*
X133763663Y-110298903D01*
X133977830Y-110199035D01*
X134171401Y-110063495D01*
X134338495Y-109896401D01*
X134468425Y-109710842D01*
X134523002Y-109667217D01*
X134592500Y-109660023D01*
X134654855Y-109691546D01*
X134671575Y-109710842D01*
X134801500Y-109896395D01*
X134801505Y-109896401D01*
X134968599Y-110063495D01*
X135045135Y-110117086D01*
X135162165Y-110199032D01*
X135162167Y-110199033D01*
X135162170Y-110199035D01*
X135376337Y-110298903D01*
X135604592Y-110360063D01*
X135775319Y-110375000D01*
X135839999Y-110380659D01*
X135840000Y-110380659D01*
X135840001Y-110380659D01*
X135904681Y-110375000D01*
X136075408Y-110360063D01*
X136303663Y-110298903D01*
X136517830Y-110199035D01*
X136711401Y-110063495D01*
X136878495Y-109896401D01*
X137008425Y-109710842D01*
X137063002Y-109667217D01*
X137132500Y-109660023D01*
X137194855Y-109691546D01*
X137211575Y-109710842D01*
X137341500Y-109896395D01*
X137341505Y-109896401D01*
X137508599Y-110063495D01*
X137585135Y-110117086D01*
X137702165Y-110199032D01*
X137702167Y-110199033D01*
X137702170Y-110199035D01*
X137916337Y-110298903D01*
X138144592Y-110360063D01*
X138315319Y-110375000D01*
X138379999Y-110380659D01*
X138380000Y-110380659D01*
X138380001Y-110380659D01*
X138444681Y-110375000D01*
X138615408Y-110360063D01*
X138843663Y-110298903D01*
X139057830Y-110199035D01*
X139251401Y-110063495D01*
X139373717Y-109941178D01*
X139435036Y-109907696D01*
X139504728Y-109912680D01*
X139560662Y-109954551D01*
X139577577Y-109985528D01*
X139626646Y-110117088D01*
X139626649Y-110117093D01*
X139712809Y-110232187D01*
X139712812Y-110232190D01*
X139827906Y-110318350D01*
X139827913Y-110318354D01*
X139962620Y-110368596D01*
X139962627Y-110368598D01*
X140022155Y-110374999D01*
X140022172Y-110375000D01*
X140670000Y-110375000D01*
X140670000Y-109458012D01*
X140727007Y-109490925D01*
X140854174Y-109525000D01*
X140985826Y-109525000D01*
X141112993Y-109490925D01*
X141170000Y-109458012D01*
X141170000Y-110375000D01*
X141817828Y-110375000D01*
X141817844Y-110374999D01*
X141877372Y-110368598D01*
X141877379Y-110368596D01*
X142012086Y-110318354D01*
X142012093Y-110318350D01*
X142127187Y-110232190D01*
X142127190Y-110232187D01*
X142213350Y-110117093D01*
X142213354Y-110117086D01*
X142263596Y-109982379D01*
X142263598Y-109982372D01*
X142269999Y-109922844D01*
X142270000Y-109922827D01*
X142270000Y-109275000D01*
X141353012Y-109275000D01*
X141385925Y-109217993D01*
X141420000Y-109090826D01*
X141420000Y-108959174D01*
X141385925Y-108832007D01*
X141353012Y-108775000D01*
X142270000Y-108775000D01*
X142270000Y-108127172D01*
X142269999Y-108127155D01*
X142263598Y-108067627D01*
X142263596Y-108067620D01*
X142213354Y-107932913D01*
X142213350Y-107932906D01*
X142127190Y-107817812D01*
X142127187Y-107817809D01*
X142012093Y-107731649D01*
X142012086Y-107731645D01*
X141877379Y-107681403D01*
X141877372Y-107681401D01*
X141817844Y-107675000D01*
X141170000Y-107675000D01*
X141170000Y-108591988D01*
X141112993Y-108559075D01*
X140985826Y-108525000D01*
X140854174Y-108525000D01*
X140727007Y-108559075D01*
X140670000Y-108591988D01*
X140670000Y-107675000D01*
X140022155Y-107675000D01*
X139962627Y-107681401D01*
X139962620Y-107681403D01*
X139827913Y-107731645D01*
X139827906Y-107731649D01*
X139712812Y-107817809D01*
X139712809Y-107817812D01*
X139626649Y-107932906D01*
X139626645Y-107932913D01*
X139577578Y-108064470D01*
X139535707Y-108120404D01*
X139470242Y-108144821D01*
X139401969Y-108129969D01*
X139373715Y-108108819D01*
X139324360Y-108059464D01*
X139251401Y-107986505D01*
X139251397Y-107986502D01*
X139251396Y-107986501D01*
X139057834Y-107850967D01*
X139057830Y-107850965D01*
X138986727Y-107817809D01*
X138843663Y-107751097D01*
X138843659Y-107751096D01*
X138843655Y-107751094D01*
X138615413Y-107689938D01*
X138615403Y-107689936D01*
X138380001Y-107669341D01*
X138379999Y-107669341D01*
X138144596Y-107689936D01*
X138144586Y-107689938D01*
X137916344Y-107751094D01*
X137916335Y-107751098D01*
X137702171Y-107850964D01*
X137702169Y-107850965D01*
X137508597Y-107986505D01*
X137341505Y-108153597D01*
X137211575Y-108339158D01*
X137156998Y-108382783D01*
X137087500Y-108389977D01*
X137025145Y-108358454D01*
X137008425Y-108339158D01*
X136878494Y-108153597D01*
X136711402Y-107986506D01*
X136711395Y-107986501D01*
X136517834Y-107850967D01*
X136517830Y-107850965D01*
X136446727Y-107817809D01*
X136303663Y-107751097D01*
X136303659Y-107751096D01*
X136303655Y-107751094D01*
X136075413Y-107689938D01*
X136075403Y-107689936D01*
X135840001Y-107669341D01*
X135839999Y-107669341D01*
X135604596Y-107689936D01*
X135604586Y-107689938D01*
X135376344Y-107751094D01*
X135376335Y-107751098D01*
X135162171Y-107850964D01*
X135162169Y-107850965D01*
X134968597Y-107986505D01*
X134801505Y-108153597D01*
X134671575Y-108339158D01*
X134616998Y-108382783D01*
X134547500Y-108389977D01*
X134485145Y-108358454D01*
X134468425Y-108339158D01*
X134338494Y-108153597D01*
X134171402Y-107986506D01*
X134171395Y-107986501D01*
X133977834Y-107850967D01*
X133977830Y-107850965D01*
X133906727Y-107817809D01*
X133763663Y-107751097D01*
X133763659Y-107751096D01*
X133763655Y-107751094D01*
X133535413Y-107689938D01*
X133535403Y-107689936D01*
X133300001Y-107669341D01*
X133299999Y-107669341D01*
X133064596Y-107689936D01*
X133064586Y-107689938D01*
X132836344Y-107751094D01*
X132836335Y-107751098D01*
X132622171Y-107850964D01*
X132622169Y-107850965D01*
X132428597Y-107986505D01*
X132261505Y-108153597D01*
X132125965Y-108347169D01*
X132125964Y-108347171D01*
X132026098Y-108561335D01*
X132026094Y-108561344D01*
X131964938Y-108789586D01*
X131964936Y-108789596D01*
X131944341Y-109024999D01*
X121311393Y-109024999D01*
X121286532Y-108936850D01*
X121284268Y-108927419D01*
X121200388Y-108505726D01*
X121198866Y-108496116D01*
X121148331Y-108069152D01*
X121147570Y-108059482D01*
X121130596Y-107627443D01*
X121130500Y-107622575D01*
X121130500Y-106475000D01*
X121551522Y-106475000D01*
X122604722Y-106475000D01*
X122560667Y-106551306D01*
X122530000Y-106665756D01*
X122530000Y-106784244D01*
X122560667Y-106898694D01*
X122604722Y-106975000D01*
X121551522Y-106975000D01*
X121565704Y-107064544D01*
X121636230Y-107281604D01*
X121739849Y-107484966D01*
X121874004Y-107669614D01*
X122035385Y-107830995D01*
X122220033Y-107965150D01*
X122423395Y-108068769D01*
X122640455Y-108139295D01*
X122865884Y-108175000D01*
X123530000Y-108175000D01*
X123530000Y-107175000D01*
X124030000Y-107175000D01*
X124030000Y-108175000D01*
X124694116Y-108175000D01*
X124919544Y-108139295D01*
X125136604Y-108068769D01*
X125339966Y-107965150D01*
X125524614Y-107830995D01*
X125685995Y-107669614D01*
X125820150Y-107484966D01*
X125923769Y-107281604D01*
X125994295Y-107064544D01*
X126008478Y-106975000D01*
X124955278Y-106975000D01*
X124999333Y-106898694D01*
X125030000Y-106784244D01*
X125030000Y-106665756D01*
X124999333Y-106551306D01*
X124955278Y-106475000D01*
X126008478Y-106475000D01*
X125994295Y-106385455D01*
X125923769Y-106168395D01*
X125820150Y-105965033D01*
X125685995Y-105780385D01*
X125524614Y-105619004D01*
X125339966Y-105484849D01*
X125136604Y-105381230D01*
X124919544Y-105310704D01*
X124694116Y-105275000D01*
X124030000Y-105275000D01*
X124030000Y-106275000D01*
X123530000Y-106275000D01*
X123530000Y-105275000D01*
X122865884Y-105275000D01*
X122640455Y-105310704D01*
X122423395Y-105381230D01*
X122220033Y-105484849D01*
X122035385Y-105619004D01*
X121874004Y-105780385D01*
X121739849Y-105965033D01*
X121636230Y-106168395D01*
X121565704Y-106385455D01*
X121551522Y-106475000D01*
X121130500Y-106475000D01*
X121130500Y-103246153D01*
X122979500Y-103246153D01*
X122979500Y-103403846D01*
X123010261Y-103558489D01*
X123010264Y-103558501D01*
X123070602Y-103704172D01*
X123070609Y-103704185D01*
X123158210Y-103835288D01*
X123158213Y-103835292D01*
X123269707Y-103946786D01*
X123269711Y-103946789D01*
X123400814Y-104034390D01*
X123400827Y-104034397D01*
X123540349Y-104092188D01*
X123546503Y-104094737D01*
X123701153Y-104125499D01*
X123701156Y-104125500D01*
X123701158Y-104125500D01*
X123858844Y-104125500D01*
X123858845Y-104125499D01*
X124013497Y-104094737D01*
X124159179Y-104034394D01*
X124290289Y-103946789D01*
X124401789Y-103835289D01*
X124489394Y-103704179D01*
X124549737Y-103558497D01*
X124580500Y-103403842D01*
X124580500Y-103246158D01*
X124580500Y-103246155D01*
X124580499Y-103246153D01*
X124551952Y-103102638D01*
X124549737Y-103091503D01*
X124523352Y-103027804D01*
X124489397Y-102945827D01*
X124489390Y-102945814D01*
X124401789Y-102814711D01*
X124401786Y-102814707D01*
X124290292Y-102703213D01*
X124290288Y-102703210D01*
X124159185Y-102615609D01*
X124159172Y-102615602D01*
X124013501Y-102555264D01*
X124013489Y-102555261D01*
X123858845Y-102524500D01*
X123858842Y-102524500D01*
X123701158Y-102524500D01*
X123701155Y-102524500D01*
X123546510Y-102555261D01*
X123546498Y-102555264D01*
X123400827Y-102615602D01*
X123400814Y-102615609D01*
X123269711Y-102703210D01*
X123269707Y-102703213D01*
X123158213Y-102814707D01*
X123158210Y-102814711D01*
X123070609Y-102945814D01*
X123070602Y-102945827D01*
X123010264Y-103091498D01*
X123010261Y-103091510D01*
X122979500Y-103246153D01*
X121130500Y-103246153D01*
X121130500Y-102474997D01*
X151124723Y-102474997D01*
X151124723Y-102475002D01*
X151143793Y-102692975D01*
X151143793Y-102692979D01*
X151200422Y-102904322D01*
X151200424Y-102904326D01*
X151200425Y-102904330D01*
X151246661Y-103003484D01*
X151292897Y-103102638D01*
X151292898Y-103102639D01*
X151418402Y-103281877D01*
X151573123Y-103436598D01*
X151752361Y-103562102D01*
X151950670Y-103654575D01*
X152162023Y-103711207D01*
X152344926Y-103727208D01*
X152379998Y-103730277D01*
X152380000Y-103730277D01*
X152380002Y-103730277D01*
X152408254Y-103727805D01*
X152597977Y-103711207D01*
X152809330Y-103654575D01*
X153007639Y-103562102D01*
X153186877Y-103436598D01*
X153341598Y-103281877D01*
X153467102Y-103102639D01*
X153559575Y-102904330D01*
X153560163Y-102902135D01*
X158279500Y-102902135D01*
X158279500Y-104597870D01*
X158279501Y-104597876D01*
X158285908Y-104657483D01*
X158336202Y-104792328D01*
X158336206Y-104792335D01*
X158422452Y-104907544D01*
X158422455Y-104907547D01*
X158537664Y-104993793D01*
X158537671Y-104993797D01*
X158672513Y-105044090D01*
X158672514Y-105044090D01*
X158672517Y-105044091D01*
X158708353Y-105047944D01*
X158772901Y-105074679D01*
X158812751Y-105132070D01*
X158815246Y-105201896D01*
X158779595Y-105261985D01*
X158766223Y-105272805D01*
X158741182Y-105290339D01*
X158580342Y-105451179D01*
X158449865Y-105637517D01*
X158353734Y-105843673D01*
X158353730Y-105843682D01*
X158301127Y-106039999D01*
X158301128Y-106040000D01*
X159264314Y-106040000D01*
X159259920Y-106044394D01*
X159207259Y-106135606D01*
X159180000Y-106237339D01*
X159180000Y-106342661D01*
X159207259Y-106444394D01*
X159259920Y-106535606D01*
X159264314Y-106540000D01*
X158301128Y-106540000D01*
X158353730Y-106736317D01*
X158353734Y-106736326D01*
X158449865Y-106942482D01*
X158580342Y-107128820D01*
X158741179Y-107289657D01*
X158927517Y-107420134D01*
X159133673Y-107516265D01*
X159133682Y-107516269D01*
X159329999Y-107568872D01*
X159330000Y-107568871D01*
X159330000Y-106605686D01*
X159334394Y-106610080D01*
X159425606Y-106662741D01*
X159527339Y-106690000D01*
X159632661Y-106690000D01*
X159734394Y-106662741D01*
X159825606Y-106610080D01*
X159830000Y-106605686D01*
X159830000Y-107568872D01*
X160026317Y-107516269D01*
X160026326Y-107516265D01*
X160232482Y-107420134D01*
X160418820Y-107289657D01*
X160579657Y-107128820D01*
X160710134Y-106942482D01*
X160806265Y-106736326D01*
X160806269Y-106736317D01*
X160858872Y-106540000D01*
X159895686Y-106540000D01*
X159900080Y-106535606D01*
X159952741Y-106444394D01*
X159980000Y-106342661D01*
X159980000Y-106237339D01*
X159952741Y-106135606D01*
X159900080Y-106044394D01*
X159895686Y-106040000D01*
X160858872Y-106040000D01*
X160858872Y-106039999D01*
X160806269Y-105843682D01*
X160806265Y-105843673D01*
X160710134Y-105637517D01*
X160579657Y-105451179D01*
X160418820Y-105290342D01*
X160393779Y-105272808D01*
X160350154Y-105218230D01*
X160342962Y-105148732D01*
X160374484Y-105086377D01*
X160434714Y-105050964D01*
X160451650Y-105047943D01*
X160487483Y-105044091D01*
X160622328Y-104993797D01*
X160622327Y-104993797D01*
X160622331Y-104993796D01*
X160737546Y-104907546D01*
X160823796Y-104792331D01*
X160874091Y-104657483D01*
X160880500Y-104597873D01*
X160880499Y-103749998D01*
X165894532Y-103749998D01*
X165894532Y-103750001D01*
X165914364Y-103976686D01*
X165914366Y-103976697D01*
X165973258Y-104196488D01*
X165973261Y-104196497D01*
X166069431Y-104402732D01*
X166069432Y-104402734D01*
X166199954Y-104589141D01*
X166360858Y-104750045D01*
X166362362Y-104751098D01*
X166547266Y-104880568D01*
X166605275Y-104907618D01*
X166657714Y-104953791D01*
X166676866Y-105020984D01*
X166656650Y-105087865D01*
X166605275Y-105132382D01*
X166547267Y-105159431D01*
X166547265Y-105159432D01*
X166360858Y-105289954D01*
X166199954Y-105450858D01*
X166069432Y-105637265D01*
X166069431Y-105637267D01*
X165973261Y-105843502D01*
X165973258Y-105843511D01*
X165914366Y-106063302D01*
X165914364Y-106063313D01*
X165894532Y-106289998D01*
X165894532Y-106290001D01*
X165914364Y-106516686D01*
X165914366Y-106516697D01*
X165973258Y-106736488D01*
X165973261Y-106736497D01*
X166069431Y-106942732D01*
X166069432Y-106942734D01*
X166199954Y-107129141D01*
X166360858Y-107290045D01*
X166360861Y-107290047D01*
X166547266Y-107420568D01*
X166753504Y-107516739D01*
X166973308Y-107575635D01*
X167135230Y-107589801D01*
X167199998Y-107595468D01*
X167200000Y-107595468D01*
X167200002Y-107595468D01*
X167256673Y-107590509D01*
X167426692Y-107575635D01*
X167646496Y-107516739D01*
X167852734Y-107420568D01*
X168039139Y-107290047D01*
X168200047Y-107129139D01*
X168330568Y-106942734D01*
X168426739Y-106736496D01*
X168485635Y-106516692D01*
X168505468Y-106290000D01*
X168502879Y-106260413D01*
X168485635Y-106063313D01*
X168485635Y-106063308D01*
X168475370Y-106024999D01*
X176449341Y-106024999D01*
X176449341Y-106025000D01*
X176469936Y-106260403D01*
X176469938Y-106260413D01*
X176531094Y-106488655D01*
X176531096Y-106488659D01*
X176531097Y-106488663D01*
X176544170Y-106516697D01*
X176630965Y-106702830D01*
X176630967Y-106702834D01*
X176739281Y-106857521D01*
X176766505Y-106896401D01*
X176933599Y-107063495D01*
X177026893Y-107128820D01*
X177127165Y-107199032D01*
X177127167Y-107199033D01*
X177127170Y-107199035D01*
X177341337Y-107298903D01*
X177569592Y-107360063D01*
X177746034Y-107375500D01*
X177804999Y-107380659D01*
X177805000Y-107380659D01*
X177805001Y-107380659D01*
X177863966Y-107375500D01*
X178040408Y-107360063D01*
X178268663Y-107298903D01*
X178482830Y-107199035D01*
X178676401Y-107063495D01*
X178798329Y-106941566D01*
X178859648Y-106908084D01*
X178929340Y-106913068D01*
X178985274Y-106954939D01*
X179002189Y-106985917D01*
X179051202Y-107117328D01*
X179051206Y-107117335D01*
X179137452Y-107232544D01*
X179137455Y-107232547D01*
X179252664Y-107318793D01*
X179252671Y-107318797D01*
X179387517Y-107369091D01*
X179387516Y-107369091D01*
X179394444Y-107369835D01*
X179447127Y-107375500D01*
X181242872Y-107375499D01*
X181302483Y-107369091D01*
X181437331Y-107318796D01*
X181552546Y-107232546D01*
X181638796Y-107117331D01*
X181689091Y-106982483D01*
X181695500Y-106922873D01*
X181695499Y-105127128D01*
X181689091Y-105067517D01*
X181687810Y-105064083D01*
X181638797Y-104932671D01*
X181638793Y-104932664D01*
X181552547Y-104817455D01*
X181552544Y-104817452D01*
X181437335Y-104731206D01*
X181437328Y-104731202D01*
X181302482Y-104680908D01*
X181302483Y-104680908D01*
X181242883Y-104674501D01*
X181242881Y-104674500D01*
X181242873Y-104674500D01*
X181242864Y-104674500D01*
X179447129Y-104674500D01*
X179447123Y-104674501D01*
X179387516Y-104680908D01*
X179252671Y-104731202D01*
X179252664Y-104731206D01*
X179137455Y-104817452D01*
X179137452Y-104817455D01*
X179051206Y-104932664D01*
X179051203Y-104932669D01*
X179002189Y-105064083D01*
X178960317Y-105120016D01*
X178894853Y-105144433D01*
X178826580Y-105129581D01*
X178798326Y-105108430D01*
X178676402Y-104986506D01*
X178676395Y-104986501D01*
X178482834Y-104850967D01*
X178482830Y-104850965D01*
X178482828Y-104850964D01*
X178268663Y-104751097D01*
X178268659Y-104751096D01*
X178268655Y-104751094D01*
X178040413Y-104689938D01*
X178040403Y-104689936D01*
X177805001Y-104669341D01*
X177804999Y-104669341D01*
X177569596Y-104689936D01*
X177569586Y-104689938D01*
X177341344Y-104751094D01*
X177341335Y-104751098D01*
X177127171Y-104850964D01*
X177127169Y-104850965D01*
X176933597Y-104986505D01*
X176766505Y-105153597D01*
X176630965Y-105347169D01*
X176630964Y-105347171D01*
X176531098Y-105561335D01*
X176531094Y-105561344D01*
X176469938Y-105789586D01*
X176469936Y-105789596D01*
X176449341Y-106024999D01*
X168475370Y-106024999D01*
X168426739Y-105843504D01*
X168330568Y-105637266D01*
X168200047Y-105450861D01*
X168200045Y-105450858D01*
X168039141Y-105289954D01*
X167852734Y-105159432D01*
X167852728Y-105159429D01*
X167794725Y-105132382D01*
X167742285Y-105086210D01*
X167723133Y-105019017D01*
X167743348Y-104952135D01*
X167794725Y-104907618D01*
X167852734Y-104880568D01*
X168039139Y-104750047D01*
X168200047Y-104589139D01*
X168330568Y-104402734D01*
X168426739Y-104196496D01*
X168485635Y-103976692D01*
X168505468Y-103750000D01*
X168503742Y-103730277D01*
X168499801Y-103685230D01*
X168488845Y-103559995D01*
X186694451Y-103559995D01*
X186694451Y-103560004D01*
X186714616Y-103829101D01*
X186774664Y-104092188D01*
X186774666Y-104092195D01*
X186815601Y-104196496D01*
X186873257Y-104343398D01*
X187008185Y-104577102D01*
X187098169Y-104689938D01*
X187176442Y-104788089D01*
X187332266Y-104932671D01*
X187374259Y-104971635D01*
X187597226Y-105123651D01*
X187840359Y-105240738D01*
X188098228Y-105320280D01*
X188098229Y-105320280D01*
X188098232Y-105320281D01*
X188365063Y-105360499D01*
X188365068Y-105360499D01*
X188365071Y-105360500D01*
X188365072Y-105360500D01*
X188634928Y-105360500D01*
X188634929Y-105360500D01*
X188634936Y-105360499D01*
X188901767Y-105320281D01*
X188901768Y-105320280D01*
X188901772Y-105320280D01*
X189159641Y-105240738D01*
X189395557Y-105127127D01*
X189402767Y-105123655D01*
X189402767Y-105123654D01*
X189402775Y-105123651D01*
X189625741Y-104971635D01*
X189823561Y-104788085D01*
X189991815Y-104577102D01*
X190126743Y-104343398D01*
X190225334Y-104092195D01*
X190285383Y-103829103D01*
X190298462Y-103654573D01*
X190305549Y-103560004D01*
X190305549Y-103559995D01*
X190285383Y-103290898D01*
X190283324Y-103281877D01*
X190225334Y-103027805D01*
X190126743Y-102776602D01*
X189991815Y-102542898D01*
X189823561Y-102331915D01*
X189823560Y-102331914D01*
X189823557Y-102331910D01*
X189625741Y-102148365D01*
X189402775Y-101996349D01*
X189402769Y-101996346D01*
X189402768Y-101996345D01*
X189402767Y-101996344D01*
X189159643Y-101879263D01*
X189159645Y-101879263D01*
X188901773Y-101799720D01*
X188901767Y-101799718D01*
X188634936Y-101759500D01*
X188634929Y-101759500D01*
X188365071Y-101759500D01*
X188365063Y-101759500D01*
X188098232Y-101799718D01*
X188098226Y-101799720D01*
X187840358Y-101879262D01*
X187597230Y-101996346D01*
X187374258Y-102148365D01*
X187176442Y-102331910D01*
X187008185Y-102542898D01*
X186873258Y-102776599D01*
X186873256Y-102776603D01*
X186774666Y-103027804D01*
X186774664Y-103027811D01*
X186714616Y-103290898D01*
X186694451Y-103559995D01*
X168488845Y-103559995D01*
X168485635Y-103523308D01*
X168426739Y-103303504D01*
X168330568Y-103097266D01*
X168200047Y-102910861D01*
X168200045Y-102910858D01*
X168039141Y-102749954D01*
X167852734Y-102619432D01*
X167852732Y-102619431D01*
X167646497Y-102523261D01*
X167646488Y-102523258D01*
X167426697Y-102464366D01*
X167426693Y-102464365D01*
X167426692Y-102464365D01*
X167426691Y-102464364D01*
X167426686Y-102464364D01*
X167200002Y-102444532D01*
X167199998Y-102444532D01*
X166973313Y-102464364D01*
X166973302Y-102464366D01*
X166753511Y-102523258D01*
X166753502Y-102523261D01*
X166547267Y-102619431D01*
X166547265Y-102619432D01*
X166360858Y-102749954D01*
X166199954Y-102910858D01*
X166069432Y-103097265D01*
X166069431Y-103097267D01*
X165973261Y-103303502D01*
X165973258Y-103303511D01*
X165914366Y-103523302D01*
X165914364Y-103523313D01*
X165894532Y-103749998D01*
X160880499Y-103749998D01*
X160880499Y-102902128D01*
X160874091Y-102842517D01*
X160849506Y-102776602D01*
X160823797Y-102707671D01*
X160823793Y-102707664D01*
X160737547Y-102592455D01*
X160737544Y-102592452D01*
X160622335Y-102506206D01*
X160622328Y-102506202D01*
X160487482Y-102455908D01*
X160487483Y-102455908D01*
X160427883Y-102449501D01*
X160427881Y-102449500D01*
X160427873Y-102449500D01*
X160427864Y-102449500D01*
X158732129Y-102449500D01*
X158732123Y-102449501D01*
X158672516Y-102455908D01*
X158537671Y-102506202D01*
X158537664Y-102506206D01*
X158422455Y-102592452D01*
X158422452Y-102592455D01*
X158336206Y-102707664D01*
X158336202Y-102707671D01*
X158285908Y-102842517D01*
X158279501Y-102902116D01*
X158279501Y-102902123D01*
X158279500Y-102902135D01*
X153560163Y-102902135D01*
X153616207Y-102692977D01*
X153635277Y-102475000D01*
X153634346Y-102464364D01*
X153631569Y-102432618D01*
X153616207Y-102257023D01*
X153559575Y-102045670D01*
X153467102Y-101847362D01*
X153467100Y-101847359D01*
X153467099Y-101847357D01*
X153341599Y-101668124D01*
X153267566Y-101594091D01*
X153186877Y-101513402D01*
X153007639Y-101387898D01*
X153007640Y-101387898D01*
X153007638Y-101387897D01*
X152908484Y-101341661D01*
X152809330Y-101295425D01*
X152809326Y-101295424D01*
X152809322Y-101295422D01*
X152597977Y-101238793D01*
X152380002Y-101219723D01*
X152379998Y-101219723D01*
X152234682Y-101232436D01*
X152162023Y-101238793D01*
X152162020Y-101238793D01*
X151950677Y-101295422D01*
X151950670Y-101295424D01*
X151950670Y-101295425D01*
X151940758Y-101300047D01*
X151752361Y-101387898D01*
X151752357Y-101387900D01*
X151573121Y-101513402D01*
X151418402Y-101668121D01*
X151292900Y-101847357D01*
X151292898Y-101847361D01*
X151200426Y-102045668D01*
X151200422Y-102045677D01*
X151143793Y-102257020D01*
X151143793Y-102257024D01*
X151124723Y-102474997D01*
X121130500Y-102474997D01*
X121130500Y-100299998D01*
X158254532Y-100299998D01*
X158254532Y-100300001D01*
X158274364Y-100526686D01*
X158274366Y-100526697D01*
X158333258Y-100746488D01*
X158333261Y-100746497D01*
X158429431Y-100952732D01*
X158429432Y-100952734D01*
X158559954Y-101139141D01*
X158720858Y-101300045D01*
X158720861Y-101300047D01*
X158907266Y-101430568D01*
X159113504Y-101526739D01*
X159333308Y-101585635D01*
X159495230Y-101599801D01*
X159559998Y-101605468D01*
X159560000Y-101605468D01*
X159560002Y-101605468D01*
X159616807Y-101600498D01*
X159786692Y-101585635D01*
X160006496Y-101526739D01*
X160212734Y-101430568D01*
X160399139Y-101300047D01*
X160560047Y-101139139D01*
X160690568Y-100952734D01*
X160786739Y-100746496D01*
X160845635Y-100526692D01*
X160865468Y-100300000D01*
X160845635Y-100073308D01*
X160786739Y-99853504D01*
X160690568Y-99647266D01*
X160560047Y-99460861D01*
X160560045Y-99460858D01*
X160399141Y-99299954D01*
X160212734Y-99169432D01*
X160212732Y-99169431D01*
X160201275Y-99164088D01*
X160154132Y-99142105D01*
X160101694Y-99095934D01*
X160082542Y-99028740D01*
X160102758Y-98961859D01*
X160154134Y-98917341D01*
X160212484Y-98890132D01*
X160398820Y-98759657D01*
X160559657Y-98598820D01*
X160690134Y-98412482D01*
X160786265Y-98206326D01*
X160786269Y-98206317D01*
X160838872Y-98010000D01*
X159875686Y-98010000D01*
X159880080Y-98005606D01*
X159932741Y-97914394D01*
X159960000Y-97812661D01*
X159960000Y-97759998D01*
X165874532Y-97759998D01*
X165874532Y-97760001D01*
X165894364Y-97986686D01*
X165894366Y-97986697D01*
X165953258Y-98206488D01*
X165953261Y-98206497D01*
X166049431Y-98412732D01*
X166049432Y-98412734D01*
X166179954Y-98599141D01*
X166340858Y-98760045D01*
X166365462Y-98777273D01*
X166409087Y-98831849D01*
X166416281Y-98901348D01*
X166384758Y-98963703D01*
X166324529Y-98999117D01*
X166307593Y-99002138D01*
X166272516Y-99005908D01*
X166137671Y-99056202D01*
X166137664Y-99056206D01*
X166022455Y-99142452D01*
X166022452Y-99142455D01*
X165936206Y-99257664D01*
X165936202Y-99257671D01*
X165885908Y-99392517D01*
X165881406Y-99434397D01*
X165879501Y-99452123D01*
X165879500Y-99452135D01*
X165879500Y-101147870D01*
X165879501Y-101147876D01*
X165885908Y-101207483D01*
X165936202Y-101342328D01*
X165936206Y-101342335D01*
X166022452Y-101457544D01*
X166022455Y-101457547D01*
X166137664Y-101543793D01*
X166137671Y-101543797D01*
X166272517Y-101594091D01*
X166272516Y-101594091D01*
X166279444Y-101594835D01*
X166332127Y-101600500D01*
X168027872Y-101600499D01*
X168087483Y-101594091D01*
X168222331Y-101543796D01*
X168337546Y-101457546D01*
X168423796Y-101342331D01*
X168474091Y-101207483D01*
X168480500Y-101147873D01*
X168480499Y-99452128D01*
X168474091Y-99392517D01*
X168457034Y-99346786D01*
X168423797Y-99257671D01*
X168423793Y-99257664D01*
X168337547Y-99142455D01*
X168337544Y-99142452D01*
X168222335Y-99056206D01*
X168222328Y-99056202D01*
X168087482Y-99005908D01*
X168087483Y-99005908D01*
X168052404Y-99002137D01*
X167987853Y-98975399D01*
X167948005Y-98918006D01*
X167945512Y-98848181D01*
X167981165Y-98788092D01*
X167994539Y-98777272D01*
X168019140Y-98760046D01*
X168180045Y-98599141D01*
X168180047Y-98599139D01*
X168310568Y-98412734D01*
X168406739Y-98206496D01*
X168465635Y-97986692D01*
X168485468Y-97760000D01*
X168465635Y-97533308D01*
X168406739Y-97313504D01*
X168310568Y-97107266D01*
X168191816Y-96937669D01*
X168180045Y-96920858D01*
X168019141Y-96759954D01*
X167832734Y-96629432D01*
X167832732Y-96629431D01*
X167626497Y-96533261D01*
X167626488Y-96533258D01*
X167406697Y-96474366D01*
X167406693Y-96474365D01*
X167406692Y-96474365D01*
X167406691Y-96474364D01*
X167406686Y-96474364D01*
X167180002Y-96454532D01*
X167179998Y-96454532D01*
X166953313Y-96474364D01*
X166953302Y-96474366D01*
X166733511Y-96533258D01*
X166733502Y-96533261D01*
X166527267Y-96629431D01*
X166527265Y-96629432D01*
X166340858Y-96759954D01*
X166179954Y-96920858D01*
X166049432Y-97107265D01*
X166049431Y-97107267D01*
X165953261Y-97313502D01*
X165953258Y-97313511D01*
X165894366Y-97533302D01*
X165894364Y-97533313D01*
X165874532Y-97759998D01*
X159960000Y-97759998D01*
X159960000Y-97707339D01*
X159932741Y-97605606D01*
X159880080Y-97514394D01*
X159875686Y-97510000D01*
X160838872Y-97510000D01*
X160838872Y-97509999D01*
X160786269Y-97313682D01*
X160786265Y-97313673D01*
X160690134Y-97107517D01*
X160559657Y-96921179D01*
X160398820Y-96760342D01*
X160212482Y-96629865D01*
X160006328Y-96533734D01*
X159810000Y-96481127D01*
X159810000Y-97444314D01*
X159805606Y-97439920D01*
X159714394Y-97387259D01*
X159612661Y-97360000D01*
X159507339Y-97360000D01*
X159405606Y-97387259D01*
X159314394Y-97439920D01*
X159310000Y-97444314D01*
X159310000Y-96481127D01*
X159113671Y-96533734D01*
X158907517Y-96629865D01*
X158721179Y-96760342D01*
X158560342Y-96921179D01*
X158429865Y-97107517D01*
X158333734Y-97313673D01*
X158333730Y-97313682D01*
X158281127Y-97509999D01*
X158281128Y-97510000D01*
X159244314Y-97510000D01*
X159239920Y-97514394D01*
X159187259Y-97605606D01*
X159160000Y-97707339D01*
X159160000Y-97812661D01*
X159187259Y-97914394D01*
X159239920Y-98005606D01*
X159244314Y-98010000D01*
X158281128Y-98010000D01*
X158333730Y-98206317D01*
X158333734Y-98206326D01*
X158429865Y-98412482D01*
X158560342Y-98598820D01*
X158721179Y-98759657D01*
X158907518Y-98890134D01*
X158907520Y-98890135D01*
X158965865Y-98917342D01*
X159018305Y-98963514D01*
X159037457Y-99030707D01*
X159017242Y-99097589D01*
X158965867Y-99142105D01*
X158907268Y-99169431D01*
X158907264Y-99169433D01*
X158720858Y-99299954D01*
X158559954Y-99460858D01*
X158429432Y-99647265D01*
X158429431Y-99647267D01*
X158333261Y-99853502D01*
X158333258Y-99853511D01*
X158274366Y-100073302D01*
X158274364Y-100073313D01*
X158254532Y-100299998D01*
X121130500Y-100299998D01*
X121130500Y-98646153D01*
X122979500Y-98646153D01*
X122979500Y-98803846D01*
X123010261Y-98958489D01*
X123010264Y-98958501D01*
X123070602Y-99104172D01*
X123070609Y-99104185D01*
X123158210Y-99235288D01*
X123158213Y-99235292D01*
X123269707Y-99346786D01*
X123269711Y-99346789D01*
X123400814Y-99434390D01*
X123400827Y-99434397D01*
X123464718Y-99460861D01*
X123546503Y-99494737D01*
X123701153Y-99525499D01*
X123701156Y-99525500D01*
X123701158Y-99525500D01*
X123858844Y-99525500D01*
X123858845Y-99525499D01*
X124013497Y-99494737D01*
X124159179Y-99434394D01*
X124290289Y-99346789D01*
X124401789Y-99235289D01*
X124489394Y-99104179D01*
X124549737Y-98958497D01*
X124580500Y-98803842D01*
X124580500Y-98646158D01*
X124580500Y-98646155D01*
X124580499Y-98646153D01*
X124549738Y-98491510D01*
X124549737Y-98491503D01*
X124517110Y-98412734D01*
X124489397Y-98345827D01*
X124489390Y-98345814D01*
X124401789Y-98214711D01*
X124401786Y-98214707D01*
X124290292Y-98103213D01*
X124290288Y-98103210D01*
X124159185Y-98015609D01*
X124159172Y-98015602D01*
X124013501Y-97955264D01*
X124013489Y-97955261D01*
X123858845Y-97924500D01*
X123858842Y-97924500D01*
X123701158Y-97924500D01*
X123701155Y-97924500D01*
X123546510Y-97955261D01*
X123546498Y-97955264D01*
X123400827Y-98015602D01*
X123400814Y-98015609D01*
X123269711Y-98103210D01*
X123269707Y-98103213D01*
X123158213Y-98214707D01*
X123158210Y-98214711D01*
X123070609Y-98345814D01*
X123070602Y-98345827D01*
X123010264Y-98491498D01*
X123010261Y-98491510D01*
X122979500Y-98646153D01*
X121130500Y-98646153D01*
X121130500Y-97595000D01*
X151124723Y-97595000D01*
X151143765Y-97812661D01*
X151143793Y-97812975D01*
X151143793Y-97812979D01*
X151200422Y-98024322D01*
X151200424Y-98024326D01*
X151200425Y-98024330D01*
X151226422Y-98080080D01*
X151292897Y-98222638D01*
X151292898Y-98222639D01*
X151418402Y-98401877D01*
X151573123Y-98556598D01*
X151752361Y-98682102D01*
X151950670Y-98774575D01*
X152162023Y-98831207D01*
X152344926Y-98847208D01*
X152379998Y-98850277D01*
X152380000Y-98850277D01*
X152380002Y-98850277D01*
X152408254Y-98847805D01*
X152597977Y-98831207D01*
X152809330Y-98774575D01*
X153007639Y-98682102D01*
X153186877Y-98556598D01*
X153341598Y-98401877D01*
X153467102Y-98222639D01*
X153559575Y-98024330D01*
X153616207Y-97812977D01*
X153635277Y-97595000D01*
X153616207Y-97377023D01*
X153581548Y-97247675D01*
X153559577Y-97165677D01*
X153559576Y-97165676D01*
X153559575Y-97165670D01*
X153467102Y-96967362D01*
X153467100Y-96967359D01*
X153467099Y-96967357D01*
X153341599Y-96788124D01*
X153271468Y-96717993D01*
X153186877Y-96633402D01*
X153007639Y-96507898D01*
X153007640Y-96507898D01*
X153007638Y-96507897D01*
X152893195Y-96454532D01*
X152809330Y-96415425D01*
X152809326Y-96415424D01*
X152809322Y-96415422D01*
X152597977Y-96358793D01*
X152380002Y-96339723D01*
X152379998Y-96339723D01*
X152234682Y-96352436D01*
X152162023Y-96358793D01*
X152162020Y-96358793D01*
X151950677Y-96415422D01*
X151950668Y-96415426D01*
X151752361Y-96507898D01*
X151752357Y-96507900D01*
X151573121Y-96633402D01*
X151418402Y-96788121D01*
X151292900Y-96967357D01*
X151292898Y-96967361D01*
X151200426Y-97165668D01*
X151200422Y-97165677D01*
X151143793Y-97377020D01*
X151143793Y-97377023D01*
X151124723Y-97595000D01*
X121130500Y-97595000D01*
X121130500Y-95075000D01*
X121551522Y-95075000D01*
X122604722Y-95075000D01*
X122560667Y-95151306D01*
X122530000Y-95265756D01*
X122530000Y-95384244D01*
X122560667Y-95498694D01*
X122604722Y-95575000D01*
X121551522Y-95575000D01*
X121565704Y-95664544D01*
X121636230Y-95881604D01*
X121739849Y-96084966D01*
X121874004Y-96269614D01*
X122035385Y-96430995D01*
X122220033Y-96565150D01*
X122423395Y-96668769D01*
X122640455Y-96739295D01*
X122865884Y-96775000D01*
X123530000Y-96775000D01*
X123530000Y-95775000D01*
X124030000Y-95775000D01*
X124030000Y-96775000D01*
X124694116Y-96775000D01*
X124919544Y-96739295D01*
X125136604Y-96668769D01*
X125339966Y-96565150D01*
X125524614Y-96430995D01*
X125680610Y-96274999D01*
X176434364Y-96274999D01*
X176434364Y-96275000D01*
X177331988Y-96275000D01*
X177299075Y-96332007D01*
X177265000Y-96459174D01*
X177265000Y-96590826D01*
X177299075Y-96717993D01*
X177331988Y-96775000D01*
X176434364Y-96775000D01*
X176491567Y-96988486D01*
X176491570Y-96988492D01*
X176591399Y-97202578D01*
X176726894Y-97396082D01*
X176893917Y-97563105D01*
X177087421Y-97698600D01*
X177301507Y-97798429D01*
X177301516Y-97798433D01*
X177515000Y-97855634D01*
X177515000Y-96958012D01*
X177572007Y-96990925D01*
X177699174Y-97025000D01*
X177830826Y-97025000D01*
X177957993Y-96990925D01*
X178015000Y-96958012D01*
X178015000Y-97855633D01*
X178228483Y-97798433D01*
X178228492Y-97798429D01*
X178442578Y-97698600D01*
X178636078Y-97563108D01*
X178758133Y-97441053D01*
X178819456Y-97407568D01*
X178889148Y-97412552D01*
X178945082Y-97454423D01*
X178961997Y-97485401D01*
X179011202Y-97617328D01*
X179011206Y-97617335D01*
X179097452Y-97732544D01*
X179097455Y-97732547D01*
X179212664Y-97818793D01*
X179212671Y-97818797D01*
X179347517Y-97869091D01*
X179347516Y-97869091D01*
X179354444Y-97869835D01*
X179407127Y-97875500D01*
X181202872Y-97875499D01*
X181262483Y-97869091D01*
X181397331Y-97818796D01*
X181512546Y-97732546D01*
X181598796Y-97617331D01*
X181649091Y-97482483D01*
X181655500Y-97422873D01*
X181655500Y-97132135D01*
X186699500Y-97132135D01*
X186699500Y-99827870D01*
X186699501Y-99827876D01*
X186705908Y-99887483D01*
X186756202Y-100022328D01*
X186756206Y-100022335D01*
X186842452Y-100137544D01*
X186842455Y-100137547D01*
X186957664Y-100223793D01*
X186957671Y-100223797D01*
X187092517Y-100274091D01*
X187092516Y-100274091D01*
X187099444Y-100274835D01*
X187152127Y-100280500D01*
X189847872Y-100280499D01*
X189907483Y-100274091D01*
X190042331Y-100223796D01*
X190157546Y-100137546D01*
X190243796Y-100022331D01*
X190294091Y-99887483D01*
X190300500Y-99827873D01*
X190300499Y-97132128D01*
X190294091Y-97072517D01*
X190276368Y-97025000D01*
X190243797Y-96937671D01*
X190243793Y-96937664D01*
X190157547Y-96822455D01*
X190157544Y-96822452D01*
X190042335Y-96736206D01*
X190042328Y-96736202D01*
X189907482Y-96685908D01*
X189907483Y-96685908D01*
X189847883Y-96679501D01*
X189847881Y-96679500D01*
X189847873Y-96679500D01*
X189847864Y-96679500D01*
X187152129Y-96679500D01*
X187152123Y-96679501D01*
X187092516Y-96685908D01*
X186957671Y-96736202D01*
X186957664Y-96736206D01*
X186842455Y-96822452D01*
X186842452Y-96822455D01*
X186756206Y-96937664D01*
X186756202Y-96937671D01*
X186705908Y-97072517D01*
X186699501Y-97132116D01*
X186699501Y-97132123D01*
X186699500Y-97132135D01*
X181655500Y-97132135D01*
X181655499Y-95627128D01*
X181649091Y-95567517D01*
X181648002Y-95564598D01*
X181598797Y-95432671D01*
X181598793Y-95432664D01*
X181512547Y-95317455D01*
X181512544Y-95317452D01*
X181397335Y-95231206D01*
X181397328Y-95231202D01*
X181262482Y-95180908D01*
X181262483Y-95180908D01*
X181202883Y-95174501D01*
X181202881Y-95174500D01*
X181202873Y-95174500D01*
X181202864Y-95174500D01*
X179407129Y-95174500D01*
X179407123Y-95174501D01*
X179347516Y-95180908D01*
X179212671Y-95231202D01*
X179212664Y-95231206D01*
X179097455Y-95317452D01*
X179097452Y-95317455D01*
X179011206Y-95432664D01*
X179011202Y-95432671D01*
X178961997Y-95564598D01*
X178920126Y-95620532D01*
X178854661Y-95644949D01*
X178786388Y-95630097D01*
X178758134Y-95608946D01*
X178636082Y-95486894D01*
X178442578Y-95351399D01*
X178228492Y-95251570D01*
X178228486Y-95251567D01*
X178015000Y-95194364D01*
X178015000Y-96091988D01*
X177957993Y-96059075D01*
X177830826Y-96025000D01*
X177699174Y-96025000D01*
X177572007Y-96059075D01*
X177515000Y-96091988D01*
X177515000Y-95194364D01*
X177514999Y-95194364D01*
X177301513Y-95251567D01*
X177301507Y-95251570D01*
X177087422Y-95351399D01*
X177087420Y-95351400D01*
X176893926Y-95486886D01*
X176893920Y-95486891D01*
X176726891Y-95653920D01*
X176726886Y-95653926D01*
X176591400Y-95847420D01*
X176591399Y-95847422D01*
X176491570Y-96061507D01*
X176491567Y-96061513D01*
X176434364Y-96274999D01*
X125680610Y-96274999D01*
X125685995Y-96269614D01*
X125820150Y-96084966D01*
X125923769Y-95881604D01*
X125994295Y-95664544D01*
X126008478Y-95575000D01*
X124955278Y-95575000D01*
X124999333Y-95498694D01*
X125030000Y-95384244D01*
X125030000Y-95265756D01*
X124999333Y-95151306D01*
X124955278Y-95075000D01*
X126008478Y-95075000D01*
X125994295Y-94985455D01*
X125923769Y-94768395D01*
X125820150Y-94565033D01*
X125685995Y-94380385D01*
X125524614Y-94219004D01*
X125339966Y-94084849D01*
X125136604Y-93981230D01*
X124919544Y-93910704D01*
X124694116Y-93875000D01*
X124030000Y-93875000D01*
X124030000Y-94875000D01*
X123530000Y-94875000D01*
X123530000Y-93875000D01*
X122865884Y-93875000D01*
X122640455Y-93910704D01*
X122423395Y-93981230D01*
X122220033Y-94084849D01*
X122035385Y-94219004D01*
X121874004Y-94380385D01*
X121739849Y-94565033D01*
X121636230Y-94768395D01*
X121565704Y-94985455D01*
X121551522Y-95075000D01*
X121130500Y-95075000D01*
X121130500Y-94427424D01*
X121130596Y-94422556D01*
X121143864Y-94084849D01*
X121147570Y-93990515D01*
X121148331Y-93980849D01*
X121198867Y-93553873D01*
X121200389Y-93544267D01*
X121284269Y-93122575D01*
X121286531Y-93113155D01*
X121403238Y-92699339D01*
X121406233Y-92690120D01*
X121555054Y-92286724D01*
X121558777Y-92277738D01*
X121738779Y-91887283D01*
X121743189Y-91878630D01*
X121953264Y-91503515D01*
X121958351Y-91495213D01*
X122062973Y-91338635D01*
X122197212Y-91137730D01*
X122202913Y-91129884D01*
X122469097Y-90792234D01*
X122475415Y-90784837D01*
X122767267Y-90469113D01*
X122774113Y-90462267D01*
X123089842Y-90170410D01*
X123097240Y-90164092D01*
X123157529Y-90116564D01*
X123434884Y-89897913D01*
X123442730Y-89892212D01*
X123800215Y-89653349D01*
X123808515Y-89648264D01*
X124183630Y-89438189D01*
X124192283Y-89433779D01*
X124582746Y-89253773D01*
X124591724Y-89250054D01*
X124995120Y-89101233D01*
X125004339Y-89098238D01*
X125418155Y-88981531D01*
X125427575Y-88979269D01*
X125849277Y-88895387D01*
X125858873Y-88893867D01*
X126285849Y-88843331D01*
X126295515Y-88842570D01*
X126727557Y-88825596D01*
X126732425Y-88825500D01*
X126795892Y-88825500D01*
X185764108Y-88825500D01*
X185827575Y-88825500D01*
X185832443Y-88825596D01*
G37*
%TD.AperFunction*%
%TD*%
M02*
