M48
; DRILL file {KiCad 8.0.8} date 2025-03-23T20:37:38+0100
; FORMAT={-:-/ absolute / metric / decimal}
; #@! TF.CreationDate,2025-03-23T20:37:38+01:00
; #@! TF.GenerationSoftware,Kicad,Pcbnew,8.0.8
; #@! TF.FileFunction,Plated,1,2,PTH
FMAT,2
METRIC
; #@! TA.AperFunction,Plated,PTH,ViaDrill
T1C0.300
; #@! TA.AperFunction,Plated,PTH,ComponentDrill
T2C0.800
; #@! TA.AperFunction,Plated,PTH,ComponentDrill
T3C0.900
; #@! TA.AperFunction,Plated,PTH,ComponentDrill
T4C1.000
; #@! TA.AperFunction,Plated,PTH,ComponentDrill
T5C1.300
%
G90
G05
T1
X125.38Y-109.525
X126.875Y-90.225
X132.38Y-104.525
X134.38Y-105.525
X137.95Y-101.635
X138.924Y-96.585
X142.4Y-102.2
X142.88Y-106.025
X143.1Y-109.025
X143.85Y-98.915
X149.0Y-98.975
X149.05Y-105.0
X151.6Y-107.525
X154.1Y-91.025
X155.85Y-96.45
X160.15Y-110.025
T2
X152.38Y-97.595
X152.38Y-102.475
X159.56Y-97.76
X159.56Y-100.3
X159.58Y-103.75
X159.58Y-106.29
X167.18Y-97.76
X167.18Y-100.3
X167.2Y-103.75
X167.2Y-106.29
T4
X133.3Y-109.025
X135.84Y-109.025
X138.38Y-109.025
X140.92Y-109.025
X177.765Y-96.525
X177.805Y-106.025
X180.305Y-96.525
X180.345Y-106.025
T5
X188.5Y-98.48
X188.5Y-103.56
T3
G00X124.58Y-95.325
M15
G01X122.98Y-95.325
M16
G05
G00X124.58Y-106.725
M15
G01X122.98Y-106.725
M16
G05
M30
